<?xml version="1.0" encoding="UTF-8"?>
<svg xmlns="http://www.w3.org/2000/svg" version="1.1" width="125" height="125" viewBox="0 0 125 125"><rect x="0" y="0" width="125" height="125" fill="#fafaf5"/><g transform="scale(3.571)"><g transform="translate(1,1)"><path fill-rule="evenodd" d="M11 0L11 1L9 1L9 2L11 2L11 1L13 1L13 2L12 2L12 4L13 4L13 3L14 3L14 2L15 2L15 3L16 3L16 4L15 4L15 6L14 6L14 8L17 8L17 9L16 9L16 10L14 10L14 9L12 9L12 7L13 7L13 5L11 5L11 6L10 6L10 8L9 8L9 10L10 10L10 11L7 11L7 10L5 10L5 9L8 9L8 8L5 8L5 9L4 9L4 10L2 10L2 8L0 8L0 10L2 10L2 11L3 11L3 12L2 12L2 13L4 13L4 14L3 14L3 15L2 15L2 14L1 14L1 13L0 13L0 14L1 14L1 16L0 16L0 18L1 18L1 19L0 19L0 25L2 25L2 24L1 24L1 22L2 22L2 23L3 23L3 24L4 24L4 25L7 25L7 24L8 24L8 28L9 28L9 31L8 31L8 33L12 33L12 31L14 31L14 32L15 32L15 33L16 33L16 32L15 32L15 31L16 31L16 30L17 30L17 29L18 29L18 28L17 28L17 29L15 29L15 27L16 27L16 26L17 26L17 27L18 27L18 26L20 26L20 27L19 27L19 31L18 31L18 32L17 32L17 33L18 33L18 32L20 32L20 33L21 33L21 32L20 32L20 27L22 27L22 25L21 25L21 26L20 26L20 24L19 24L19 22L20 22L20 23L21 23L21 20L20 20L20 21L19 21L19 20L17 20L17 19L18 19L18 18L19 18L19 19L22 19L22 21L23 21L23 22L24 22L24 21L25 21L25 23L23 23L23 25L24 25L24 26L23 26L23 28L22 28L22 29L21 29L21 30L22 30L22 29L23 29L23 28L24 28L24 29L25 29L25 30L26 30L26 29L28 29L28 31L29 31L29 32L31 32L31 33L32 33L32 32L31 32L31 31L33 31L33 27L32 27L32 26L33 26L33 23L32 23L32 20L33 20L33 17L32 17L32 15L31 15L31 13L30 13L30 12L31 12L31 11L32 11L32 12L33 12L33 11L32 11L32 9L30 9L30 8L28 8L28 9L27 9L27 12L26 12L26 11L25 11L25 10L24 10L24 9L23 9L23 6L22 6L22 9L21 9L21 6L20 6L20 9L19 9L19 5L20 5L20 4L19 4L19 2L18 2L18 1L19 1L19 0L18 0L18 1L17 1L17 0L15 0L15 1L13 1L13 0ZM20 0L20 2L21 2L21 4L22 4L22 3L23 3L23 5L24 5L24 4L25 4L25 3L24 3L24 2L25 2L25 1L24 1L24 2L22 2L22 1L23 1L23 0ZM15 1L15 2L16 2L16 3L18 3L18 2L16 2L16 1ZM8 3L8 5L10 5L10 4L9 4L9 3ZM17 4L17 5L16 5L16 6L15 6L15 7L16 7L16 6L17 6L17 8L18 8L18 5L19 5L19 4ZM8 6L8 7L9 7L9 6ZM11 6L11 7L12 7L12 6ZM24 6L24 7L25 7L25 6ZM10 8L10 10L11 10L11 11L10 11L10 14L7 14L7 13L9 13L9 12L7 12L7 11L6 11L6 12L7 12L7 13L6 13L6 14L5 14L5 15L4 15L4 16L2 16L2 17L6 17L6 18L7 18L7 19L5 19L5 21L3 21L3 23L4 23L4 24L7 24L7 23L6 23L6 22L8 22L8 24L10 24L10 26L9 26L9 28L10 28L10 29L11 29L11 30L10 30L10 31L9 31L9 32L11 32L11 31L12 31L12 30L15 30L15 29L14 29L14 28L13 28L13 29L12 29L12 27L13 27L13 26L12 26L12 25L13 25L13 24L14 24L14 23L15 23L15 25L16 25L16 24L17 24L17 25L18 25L18 23L15 23L15 22L14 22L14 20L16 20L16 22L19 22L19 21L17 21L17 20L16 20L16 19L15 19L15 18L12 18L12 17L15 17L15 16L16 16L16 17L17 17L17 16L19 16L19 15L20 15L20 18L23 18L23 17L22 17L22 14L23 14L23 15L24 15L24 16L25 16L25 15L26 15L26 17L27 17L27 18L29 18L29 19L28 19L28 20L29 20L29 19L32 19L32 18L29 18L29 17L31 17L31 16L29 16L29 15L28 15L28 16L29 16L29 17L27 17L27 14L26 14L26 12L25 12L25 11L24 11L24 10L23 10L23 11L24 11L24 12L25 12L25 13L24 13L24 14L23 14L23 12L22 12L22 10L19 10L19 9L18 9L18 10L16 10L16 13L17 13L17 16L16 16L16 15L15 15L15 11L14 11L14 13L11 13L11 12L12 12L12 11L13 11L13 10L12 10L12 9L11 9L11 8ZM29 9L29 10L28 10L28 11L29 11L29 10L30 10L30 11L31 11L31 10L30 10L30 9ZM4 10L4 13L5 13L5 10ZM18 10L18 11L19 11L19 10ZM20 11L20 12L18 12L18 13L19 13L19 14L20 14L20 12L21 12L21 11ZM28 12L28 14L29 14L29 12ZM21 13L21 14L22 14L22 13ZM32 13L32 14L33 14L33 13ZM6 14L6 15L5 15L5 16L6 16L6 17L8 17L8 15L7 15L7 14ZM10 14L10 16L9 16L9 18L8 18L8 20L6 20L6 21L9 21L9 23L10 23L10 24L12 24L12 23L13 23L13 22L10 22L10 19L12 19L12 21L13 21L13 20L14 20L14 19L12 19L12 18L11 18L11 17L12 17L12 15L13 15L13 14ZM6 15L6 16L7 16L7 15ZM10 16L10 17L11 17L11 16ZM3 18L3 19L2 19L2 20L1 20L1 21L2 21L2 20L3 20L3 19L4 19L4 18ZM9 18L9 19L10 19L10 18ZM23 19L23 20L26 20L26 24L29 24L29 27L31 27L31 26L30 26L30 25L32 25L32 24L29 24L29 22L27 22L27 20L26 20L26 19ZM30 20L30 21L31 21L31 20ZM25 25L25 28L28 28L28 25ZM26 26L26 27L27 27L27 26ZM10 27L10 28L11 28L11 27ZM29 28L29 31L30 31L30 30L31 30L31 29L32 29L32 28ZM22 31L22 33L23 33L23 31ZM26 31L26 33L27 33L27 31ZM24 32L24 33L25 33L25 32ZM0 0L0 7L7 7L7 0ZM1 1L1 6L6 6L6 1ZM2 2L2 5L5 5L5 2ZM26 0L26 7L33 7L33 0ZM27 1L27 6L32 6L32 1ZM28 2L28 5L31 5L31 2ZM0 26L0 33L7 33L7 26ZM1 27L1 32L6 32L6 27ZM2 28L2 31L5 31L5 28Z" fill="#000000"/></g></g></svg>
