<?xml version="1.0" encoding="UTF-8"?>
<svg xmlns="http://www.w3.org/2000/svg" version="1.1" width="125" height="125" viewBox="0 0 125 125"><rect x="0" y="0" width="125" height="125" fill="#fafaf5"/><g transform="scale(3.571)"><g transform="translate(1,1)"><path fill-rule="evenodd" d="M8 0L8 4L9 4L9 5L8 5L8 7L9 7L9 6L10 6L10 9L11 9L11 8L12 8L12 9L13 9L13 10L15 10L15 11L14 11L14 12L13 12L13 11L12 11L12 12L11 12L11 13L10 13L10 15L11 15L11 16L12 16L12 17L13 17L13 18L15 18L15 19L14 19L14 20L13 20L13 19L12 19L12 20L11 20L11 18L10 18L10 17L9 17L9 18L8 18L8 19L7 19L7 18L6 18L6 17L8 17L8 15L9 15L9 14L6 14L6 13L7 13L7 12L6 12L6 11L7 11L7 10L6 10L6 9L7 9L7 8L4 8L4 9L3 9L3 10L1 10L1 9L2 9L2 8L0 8L0 10L1 10L1 11L0 11L0 12L1 12L1 13L2 13L2 12L1 12L1 11L3 11L3 10L4 10L4 11L5 11L5 12L4 12L4 13L3 13L3 14L0 14L0 15L2 15L2 16L0 16L0 17L2 17L2 18L3 18L3 19L1 19L1 21L0 21L0 22L2 22L2 21L5 21L5 23L7 23L7 22L8 22L8 24L6 24L6 25L8 25L8 26L10 26L10 23L11 23L11 24L12 24L12 25L13 25L13 26L15 26L15 27L14 27L14 28L13 28L13 27L12 27L12 28L10 28L10 27L8 27L8 29L9 29L9 28L10 28L10 30L9 30L9 31L8 31L8 33L9 33L9 32L12 32L12 33L14 33L14 31L17 31L17 32L16 32L16 33L18 33L18 32L19 32L19 33L20 33L20 31L21 31L21 33L23 33L23 32L24 32L24 33L26 33L26 32L27 32L27 33L28 33L28 32L29 32L29 27L32 27L32 28L31 28L31 29L32 29L32 28L33 28L33 27L32 27L32 26L31 26L31 25L30 25L30 24L29 24L29 22L31 22L31 24L32 24L32 25L33 25L33 23L32 23L32 22L31 22L31 21L30 21L30 20L29 20L29 18L30 18L30 19L31 19L31 20L32 20L32 21L33 21L33 19L32 19L32 18L31 18L31 17L29 17L29 16L28 16L28 17L29 17L29 18L27 18L27 19L26 19L26 21L27 21L27 22L28 22L28 23L27 23L27 24L26 24L26 22L24 22L24 21L25 21L25 19L24 19L24 18L25 18L25 16L26 16L26 17L27 17L27 15L28 15L28 13L29 13L29 14L32 14L32 13L29 13L29 12L28 12L28 13L27 13L27 12L26 12L26 11L24 11L24 9L23 9L23 8L25 8L25 6L24 6L24 7L23 7L23 6L22 6L22 7L21 7L21 6L20 6L20 5L22 5L22 4L21 4L21 3L22 3L22 1L21 1L21 0L20 0L20 1L17 1L17 0L16 0L16 1L15 1L15 0L13 0L13 1L11 1L11 2L12 2L12 5L13 5L13 2L14 2L14 3L15 3L15 2L16 2L16 1L17 1L17 3L16 3L16 4L17 4L17 6L16 6L16 9L14 9L14 7L15 7L15 6L14 6L14 7L13 7L13 6L12 6L12 7L11 7L11 3L10 3L10 2L9 2L9 0ZM23 0L23 1L24 1L24 3L25 3L25 1L24 1L24 0ZM20 1L20 2L19 2L19 3L17 3L17 4L19 4L19 5L18 5L18 6L17 6L17 7L18 7L18 8L19 8L19 7L20 7L20 9L17 9L17 10L16 10L16 11L22 11L22 12L23 12L23 13L22 13L22 14L21 14L21 15L23 15L23 16L24 16L24 15L23 15L23 13L24 13L24 14L25 14L25 15L27 15L27 13L26 13L26 12L25 12L25 13L24 13L24 11L23 11L23 9L22 9L22 10L20 10L20 9L21 9L21 7L20 7L20 6L19 6L19 5L20 5L20 4L19 4L19 3L21 3L21 1ZM23 4L23 5L24 5L24 4ZM18 6L18 7L19 7L19 6ZM12 7L12 8L13 8L13 7ZM22 7L22 8L23 8L23 7ZM27 8L27 11L29 11L29 10L28 10L28 8ZM29 8L29 9L30 9L30 11L32 11L32 12L33 12L33 11L32 11L32 10L31 10L31 9L33 9L33 8ZM8 9L8 13L9 13L9 12L10 12L10 11L11 11L11 10L9 10L9 9ZM25 9L25 10L26 10L26 9ZM5 12L5 13L6 13L6 12ZM12 12L12 13L11 13L11 14L12 14L12 13L13 13L13 14L15 14L15 13L17 13L17 15L16 15L16 16L15 16L15 15L14 15L14 17L17 17L17 15L18 15L18 16L20 16L20 17L19 17L19 20L20 20L20 21L19 21L19 24L20 24L20 25L17 25L17 23L16 23L16 25L17 25L17 26L16 26L16 27L18 27L18 26L19 26L19 27L20 27L20 25L21 25L21 23L22 23L22 21L21 21L21 19L20 19L20 17L21 17L21 18L23 18L23 17L21 17L21 16L20 16L20 12L19 12L19 13L17 13L17 12L15 12L15 13L13 13L13 12ZM25 13L25 14L26 14L26 13ZM18 14L18 15L19 15L19 14ZM4 15L4 16L5 16L5 15ZM6 15L6 16L7 16L7 15ZM12 15L12 16L13 16L13 15ZM31 15L31 16L32 16L32 17L33 17L33 15ZM3 17L3 18L4 18L4 19L3 19L3 20L5 20L5 21L6 21L6 22L7 22L7 21L9 21L9 23L10 23L10 22L12 22L12 21L13 21L13 22L15 22L15 21L13 21L13 20L12 20L12 21L9 21L9 20L10 20L10 19L9 19L9 20L7 20L7 19L5 19L5 18L4 18L4 17ZM16 18L16 19L17 19L17 18ZM22 19L22 20L23 20L23 19ZM27 19L27 21L28 21L28 22L29 22L29 21L28 21L28 19ZM6 20L6 21L7 21L7 20ZM16 20L16 21L17 21L17 20ZM20 21L20 23L21 23L21 21ZM3 22L3 23L4 23L4 22ZM12 23L12 24L13 24L13 23ZM14 23L14 25L15 25L15 23ZM23 23L23 25L22 25L22 26L23 26L23 27L22 27L22 28L23 28L23 29L22 29L22 30L21 30L21 31L22 31L22 32L23 32L23 31L24 31L24 30L26 30L26 29L24 29L24 24L25 24L25 23ZM0 24L0 25L4 25L4 24ZM8 24L8 25L9 25L9 24ZM25 25L25 28L28 28L28 25ZM29 25L29 26L30 26L30 25ZM26 26L26 27L27 27L27 26ZM12 28L12 29L11 29L11 30L10 30L10 31L11 31L11 30L12 30L12 29L13 29L13 30L15 30L15 29L17 29L17 28L15 28L15 29L13 29L13 28ZM19 28L19 31L20 31L20 28ZM27 29L27 31L28 31L28 29ZM17 30L17 31L18 31L18 30ZM12 31L12 32L13 32L13 31ZM25 31L25 32L26 32L26 31ZM32 32L32 33L33 33L33 32ZM0 0L0 7L7 7L7 0ZM1 1L1 6L6 6L6 1ZM2 2L2 5L5 5L5 2ZM26 0L26 7L33 7L33 0ZM27 1L27 6L32 6L32 1ZM28 2L28 5L31 5L31 2ZM0 26L0 33L7 33L7 26ZM1 27L1 32L6 32L6 27ZM2 28L2 31L5 31L5 28Z" fill="#000000"/></g></g></svg>
