<?xml version="1.0" encoding="UTF-8"?>
<svg xmlns="http://www.w3.org/2000/svg" version="1.1" width="125" height="125" viewBox="0 0 125 125"><rect x="0" y="0" width="125" height="125" fill="#fafaf5"/><g transform="scale(3.571)"><g transform="translate(1,1)"><path fill-rule="evenodd" d="M8 0L8 1L9 1L9 2L8 2L8 5L9 5L9 4L11 4L11 5L10 5L10 10L9 10L9 8L8 8L8 9L7 9L7 8L6 8L6 9L4 9L4 8L0 8L0 9L4 9L4 12L3 12L3 10L0 10L0 11L1 11L1 12L2 12L2 13L0 13L0 17L1 17L1 18L0 18L0 22L4 22L4 21L5 21L5 18L6 18L6 19L7 19L7 20L6 20L6 21L7 21L7 22L5 22L5 23L3 23L3 24L2 24L2 23L1 23L1 24L0 24L0 25L1 25L1 24L2 24L2 25L4 25L4 24L5 24L5 23L7 23L7 22L9 22L9 20L8 20L8 19L7 19L7 18L8 18L8 17L7 17L7 16L9 16L9 14L10 14L10 13L11 13L11 15L10 15L10 16L12 16L12 17L13 17L13 16L12 16L12 14L13 14L13 15L14 15L14 18L13 18L13 21L15 21L15 19L16 19L16 24L17 24L17 25L15 25L15 26L14 26L14 25L13 25L13 26L12 26L12 24L15 24L15 22L14 22L14 23L11 23L11 21L10 21L10 23L8 23L8 24L6 24L6 25L8 25L8 26L9 26L9 25L10 25L10 23L11 23L11 26L10 26L10 27L11 27L11 26L12 26L12 28L11 28L11 29L10 29L10 28L9 28L9 29L8 29L8 33L10 33L10 31L9 31L9 30L11 30L11 31L12 31L12 32L11 32L11 33L14 33L14 32L13 32L13 30L14 30L14 29L12 29L12 28L14 28L14 27L15 27L15 31L17 31L17 32L16 32L16 33L22 33L22 32L25 32L25 33L29 33L29 32L25 32L25 31L27 31L27 30L25 30L25 29L30 29L30 30L29 30L29 31L31 31L31 28L32 28L32 27L31 27L31 26L32 26L32 24L33 24L33 21L31 21L31 20L32 20L32 18L33 18L33 15L32 15L32 14L31 14L31 15L30 15L30 14L29 14L29 15L28 15L28 18L27 18L27 15L26 15L26 14L25 14L25 13L26 13L26 12L25 12L25 11L24 11L24 9L26 9L26 11L27 11L27 14L28 14L28 13L29 13L29 12L30 12L30 11L31 11L31 13L33 13L33 8L32 8L32 9L31 9L31 8L28 8L28 9L30 9L30 11L29 11L29 12L28 12L28 11L27 11L27 9L26 9L26 8L25 8L25 2L24 2L24 0L23 0L23 3L22 3L22 4L21 4L21 2L22 2L22 0L21 0L21 2L20 2L20 4L19 4L19 3L17 3L17 1L18 1L18 2L19 2L19 1L20 1L20 0L17 0L17 1L16 1L16 0L12 0L12 1L11 1L11 0L10 0L10 1L9 1L9 0ZM14 1L14 2L11 2L11 4L12 4L12 3L13 3L13 5L12 5L12 6L11 6L11 8L12 8L12 6L13 6L13 8L14 8L14 9L15 9L15 7L16 7L16 6L15 6L15 5L16 5L16 4L17 4L17 3L16 3L16 1ZM14 3L14 5L13 5L13 6L14 6L14 7L15 7L15 6L14 6L14 5L15 5L15 4L16 4L16 3ZM22 4L22 5L20 5L20 6L19 6L19 8L18 8L18 11L17 11L17 9L16 9L16 10L14 10L14 11L11 11L11 13L12 13L12 12L13 12L13 14L14 14L14 15L16 15L16 16L15 16L15 17L16 17L16 19L20 19L20 18L22 18L22 19L21 19L21 20L22 20L22 21L23 21L23 20L22 20L22 19L24 19L24 18L25 18L25 20L24 20L24 22L25 22L25 21L27 21L27 22L28 22L28 23L24 23L24 24L23 24L23 25L22 25L22 23L23 23L23 22L22 22L22 23L21 23L21 21L20 21L20 22L19 22L19 20L18 20L18 21L17 21L17 24L18 24L18 23L20 23L20 24L19 24L19 25L17 25L17 26L19 26L19 25L20 25L20 24L21 24L21 25L22 25L22 26L21 26L21 27L22 27L22 26L23 26L23 25L24 25L24 24L28 24L28 23L30 23L30 26L29 26L29 27L30 27L30 26L31 26L31 24L32 24L32 23L31 23L31 22L29 22L29 20L31 20L31 18L32 18L32 17L30 17L30 19L29 19L29 18L28 18L28 20L27 20L27 18L26 18L26 17L25 17L25 15L24 15L24 12L23 12L23 11L21 11L21 10L23 10L23 9L24 9L24 8L22 8L22 5L23 5L23 7L24 7L24 4ZM8 6L8 7L9 7L9 6ZM17 6L17 7L18 7L18 6ZM20 6L20 9L19 9L19 10L20 10L20 9L22 9L22 8L21 8L21 6ZM6 9L6 10L5 10L5 12L4 12L4 13L3 13L3 15L4 15L4 17L3 17L3 18L2 18L2 20L3 20L3 21L4 21L4 17L5 17L5 14L4 14L4 13L5 13L5 12L7 12L7 11L8 11L8 13L9 13L9 11L8 11L8 10L7 10L7 9ZM11 9L11 10L12 10L12 9ZM6 10L6 11L7 11L7 10ZM15 11L15 12L14 12L14 14L19 14L19 15L18 15L18 16L19 16L19 17L22 17L22 18L24 18L24 17L23 17L23 16L24 16L24 15L23 15L23 16L22 16L22 13L23 13L23 12L22 12L22 13L21 13L21 12L20 12L20 11L19 11L19 12L17 12L17 11ZM19 12L19 13L20 13L20 12ZM6 13L6 14L7 14L7 15L6 15L6 16L7 16L7 15L8 15L8 14L7 14L7 13ZM20 14L20 15L21 15L21 14ZM1 16L1 17L2 17L2 16ZM6 17L6 18L7 18L7 17ZM9 17L9 18L10 18L10 19L11 19L11 20L12 20L12 19L11 19L11 18L10 18L10 17ZM17 17L17 18L18 18L18 17ZM25 25L25 28L28 28L28 25ZM13 26L13 27L14 27L14 26ZM15 26L15 27L16 27L16 26ZM26 26L26 27L27 27L27 26ZM17 27L17 28L16 28L16 30L18 30L18 32L19 32L19 31L20 31L20 30L21 30L21 32L22 32L22 30L21 30L21 29L19 29L19 30L18 30L18 28L19 28L19 27ZM11 29L11 30L12 30L12 29ZM23 29L23 30L24 30L24 31L25 31L25 30L24 30L24 29ZM32 29L32 30L33 30L33 29ZM32 31L32 32L33 32L33 31ZM30 32L30 33L31 33L31 32ZM0 0L0 7L7 7L7 0ZM1 1L1 6L6 6L6 1ZM2 2L2 5L5 5L5 2ZM26 0L26 7L33 7L33 0ZM27 1L27 6L32 6L32 1ZM28 2L28 5L31 5L31 2ZM0 26L0 33L7 33L7 26ZM1 27L1 32L6 32L6 27ZM2 28L2 31L5 31L5 28Z" fill="#000000"/></g></g></svg>
