<?xml version="1.0" encoding="UTF-8"?>
<svg xmlns="http://www.w3.org/2000/svg" version="1.1" width="125" height="125" viewBox="0 0 125 125"><rect x="0" y="0" width="125" height="125" fill="#fafaf5"/><g transform="scale(3.571)"><g transform="translate(1,1)"><path fill-rule="evenodd" d="M9 0L9 1L10 1L10 2L8 2L8 3L9 3L9 4L10 4L10 5L9 5L9 6L8 6L8 8L4 8L4 9L3 9L3 8L0 8L0 14L1 14L1 12L2 12L2 14L3 14L3 15L2 15L2 17L3 17L3 18L4 18L4 17L3 17L3 15L5 15L5 14L6 14L6 15L7 15L7 16L6 16L6 17L5 17L5 18L6 18L6 19L4 19L4 20L3 20L3 19L2 19L2 18L1 18L1 19L2 19L2 20L0 20L0 21L2 21L2 20L3 20L3 21L4 21L4 20L6 20L6 21L7 21L7 22L2 22L2 23L1 23L1 22L0 22L0 23L1 23L1 24L0 24L0 25L1 25L1 24L2 24L2 25L8 25L8 29L9 29L9 30L8 30L8 33L12 33L12 32L14 32L14 33L15 33L15 32L16 32L16 33L18 33L18 30L19 30L19 29L22 29L22 28L23 28L23 27L24 27L24 29L23 29L23 31L22 31L22 30L21 30L21 33L22 33L22 32L24 32L24 33L25 33L25 32L27 32L27 33L29 33L29 32L28 32L28 31L31 31L31 33L33 33L33 32L32 32L32 31L33 31L33 29L32 29L32 31L31 31L31 29L29 29L29 26L30 26L30 24L28 24L28 23L32 23L32 24L31 24L31 25L32 25L32 26L31 26L31 27L33 27L33 13L32 13L32 12L33 12L33 9L32 9L32 10L31 10L31 14L29 14L29 15L28 15L28 16L29 16L29 15L31 15L31 14L32 14L32 16L31 16L31 17L32 17L32 18L31 18L31 19L32 19L32 20L31 20L31 21L32 21L32 22L27 22L27 18L28 18L28 19L30 19L30 18L28 18L28 17L27 17L27 12L25 12L25 10L26 10L26 11L27 11L27 8L25 8L25 5L24 5L24 4L23 4L23 3L24 3L24 0L22 0L22 1L23 1L23 3L22 3L22 4L21 4L21 0L16 0L16 1L14 1L14 0L12 0L12 1L10 1L10 0ZM13 1L13 2L14 2L14 1ZM17 1L17 3L16 3L16 2L15 2L15 3L16 3L16 4L15 4L15 5L14 5L14 4L13 4L13 3L12 3L12 2L11 2L11 3L12 3L12 4L11 4L11 5L10 5L10 6L9 6L9 7L10 7L10 6L11 6L11 8L12 8L12 10L10 10L10 8L9 8L9 10L8 10L8 9L6 9L6 10L5 10L5 12L3 12L3 10L2 10L2 9L1 9L1 10L2 10L2 12L3 12L3 13L5 13L5 12L8 12L8 13L6 13L6 14L8 14L8 15L10 15L10 16L8 16L8 17L6 17L6 18L7 18L7 19L6 19L6 20L8 20L8 18L9 18L9 21L10 21L10 22L8 22L8 25L9 25L9 24L10 24L10 25L11 25L11 24L12 24L12 26L9 26L9 29L10 29L10 27L12 27L12 28L11 28L11 29L12 29L12 28L13 28L13 29L14 29L14 30L13 30L13 31L14 31L14 30L15 30L15 31L16 31L16 32L17 32L17 30L16 30L16 29L15 29L15 27L16 27L16 25L15 25L15 26L14 26L14 24L12 24L12 23L11 23L11 24L10 24L10 22L11 22L11 21L12 21L12 20L13 20L13 21L14 21L14 22L13 22L13 23L14 23L14 22L15 22L15 23L16 23L16 24L17 24L17 23L18 23L18 21L17 21L17 22L16 22L16 20L15 20L15 19L16 19L16 16L17 16L17 15L18 15L18 16L20 16L20 14L22 14L22 18L21 18L21 17L17 17L17 19L20 19L20 18L21 18L21 19L22 19L22 18L23 18L23 19L24 19L24 18L25 18L25 19L26 19L26 17L23 17L23 16L24 16L24 15L25 15L25 16L26 16L26 14L24 14L24 9L25 9L25 8L22 8L22 9L21 9L21 8L19 8L19 7L20 7L20 6L19 6L19 3L18 3L18 1ZM17 4L17 6L16 6L16 8L15 8L15 6L14 6L14 5L13 5L13 6L12 6L12 8L14 8L14 10L13 10L13 11L14 11L14 10L16 10L16 11L17 11L17 13L16 13L16 14L17 14L17 13L18 13L18 15L19 15L19 8L18 8L18 7L19 7L19 6L18 6L18 4ZM22 5L22 6L21 6L21 7L22 7L22 6L23 6L23 7L24 7L24 6L23 6L23 5ZM13 6L13 7L14 7L14 6ZM17 6L17 7L18 7L18 6ZM30 8L30 9L29 9L29 10L28 10L28 12L29 12L29 11L30 11L30 9L31 9L31 8ZM16 9L16 10L17 10L17 11L18 11L18 10L17 10L17 9ZM6 10L6 11L8 11L8 10ZM9 10L9 11L10 11L10 10ZM20 10L20 11L21 11L21 13L22 13L22 12L23 12L23 11L22 11L22 10ZM11 11L11 12L12 12L12 13L11 13L11 14L10 14L10 13L9 13L9 14L10 14L10 15L12 15L12 16L11 16L11 18L10 18L10 19L11 19L11 20L10 20L10 21L11 21L11 20L12 20L12 19L11 19L11 18L12 18L12 16L14 16L14 18L13 18L13 19L14 19L14 18L15 18L15 16L16 16L16 15L15 15L15 14L14 14L14 13L13 13L13 12L12 12L12 11ZM13 14L13 15L14 15L14 14ZM0 15L0 17L1 17L1 15ZM19 20L19 23L20 23L20 24L19 24L19 25L17 25L17 26L18 26L18 27L19 27L19 28L18 28L18 29L19 29L19 28L20 28L20 27L22 27L22 26L23 26L23 25L24 25L24 24L27 24L27 23L25 23L25 22L26 22L26 21L25 21L25 22L24 22L24 21L23 21L23 20L22 20L22 21L23 21L23 23L22 23L22 25L21 25L21 20ZM29 20L29 21L30 21L30 20ZM2 23L2 24L3 24L3 23ZM5 23L5 24L7 24L7 23ZM25 25L25 28L28 28L28 25ZM13 26L13 27L14 27L14 26ZM26 26L26 27L27 27L27 26ZM25 29L25 30L24 30L24 31L25 31L25 30L26 30L26 31L27 31L27 29ZM9 30L9 32L10 32L10 31L11 31L11 32L12 32L12 31L11 31L11 30ZM0 0L0 7L7 7L7 0ZM1 1L1 6L6 6L6 1ZM2 2L2 5L5 5L5 2ZM26 0L26 7L33 7L33 0ZM27 1L27 6L32 6L32 1ZM28 2L28 5L31 5L31 2ZM0 26L0 33L7 33L7 26ZM1 27L1 32L6 32L6 27ZM2 28L2 31L5 31L5 28Z" fill="#000000"/></g></g></svg>
