<?xml version="1.0" encoding="UTF-8"?>
<svg xmlns="http://www.w3.org/2000/svg" version="1.1" width="125" height="125" viewBox="0 0 125 125"><rect x="0" y="0" width="125" height="125" fill="#fafaf5"/><g transform="scale(3.571)"><g transform="translate(1,1)"><path fill-rule="evenodd" d="M9 0L9 1L8 1L8 3L9 3L9 4L8 4L8 8L6 8L6 9L4 9L4 8L3 8L3 10L5 10L5 11L3 11L3 12L0 12L0 13L1 13L1 14L0 14L0 16L2 16L2 17L0 17L0 18L3 18L3 19L4 19L4 20L2 20L2 21L5 21L5 22L4 22L4 23L3 23L3 22L0 22L0 23L1 23L1 24L0 24L0 25L1 25L1 24L2 24L2 23L3 23L3 24L5 24L5 25L7 25L7 24L8 24L8 27L9 27L9 26L10 26L10 27L11 27L11 28L12 28L12 30L10 30L10 31L8 31L8 33L9 33L9 32L10 32L10 31L12 31L12 32L13 32L13 30L14 30L14 32L16 32L16 33L17 33L17 32L18 32L18 30L19 30L19 29L18 29L18 28L19 28L19 27L17 27L17 26L16 26L16 27L15 27L15 25L19 25L19 26L20 26L20 30L21 30L21 32L20 32L20 31L19 31L19 32L20 32L20 33L22 33L22 30L21 30L21 29L23 29L23 26L24 26L24 30L23 30L23 33L25 33L25 31L26 31L26 33L30 33L30 32L29 32L29 31L31 31L31 29L32 29L32 28L31 28L31 29L30 29L30 30L29 30L29 27L30 27L30 23L31 23L31 22L29 22L29 24L28 24L28 22L27 22L27 21L26 21L26 20L27 20L27 18L28 18L28 20L29 20L29 19L30 19L30 17L29 17L29 15L28 15L28 17L27 17L27 15L26 15L26 17L27 17L27 18L26 18L26 20L25 20L25 18L24 18L24 17L25 17L25 15L24 15L24 14L25 14L25 13L26 13L26 14L27 14L27 9L29 9L29 11L28 11L28 12L30 12L30 9L32 9L32 11L31 11L31 13L32 13L32 14L33 14L33 13L32 13L32 11L33 11L33 9L32 9L32 8L30 8L30 9L29 9L29 8L26 8L26 9L24 9L24 8L25 8L25 5L24 5L24 4L23 4L23 3L22 3L22 4L21 4L21 3L19 3L19 1L21 1L21 0L16 0L16 1L14 1L14 0L12 0L12 1L11 1L11 2L9 2L9 1L10 1L10 0ZM22 0L22 2L24 2L24 0ZM16 1L16 2L14 2L14 3L16 3L16 4L15 4L15 8L14 8L14 6L13 6L13 3L12 3L12 4L9 4L9 5L10 5L10 6L9 6L9 7L10 7L10 8L8 8L8 9L6 9L6 10L8 10L8 11L5 11L5 13L6 13L6 14L4 14L4 13L3 13L3 14L1 14L1 15L3 15L3 14L4 14L4 15L6 15L6 16L7 16L7 15L6 15L6 14L8 14L8 16L9 16L9 18L7 18L7 17L6 17L6 18L7 18L7 19L6 19L6 20L7 20L7 21L6 21L6 22L5 22L5 23L6 23L6 24L7 24L7 23L6 23L6 22L7 22L7 21L8 21L8 22L9 22L9 23L10 23L10 24L11 24L11 22L10 22L10 21L11 21L11 19L12 19L12 20L13 20L13 21L14 21L14 22L15 22L15 23L14 23L14 24L12 24L12 28L14 28L14 29L15 29L15 31L17 31L17 30L18 30L18 29L17 29L17 28L16 28L16 29L15 29L15 27L13 27L13 25L14 25L14 24L15 24L15 23L16 23L16 24L18 24L18 23L19 23L19 22L20 22L20 23L21 23L21 21L20 21L20 20L19 20L19 22L17 22L17 23L16 23L16 20L17 20L17 21L18 21L18 20L17 20L17 19L20 19L20 15L21 15L21 14L22 14L22 16L24 16L24 15L23 15L23 14L24 14L24 12L22 12L22 13L21 13L21 11L20 11L20 12L19 12L19 13L20 13L20 14L18 14L18 16L19 16L19 17L18 17L18 18L17 18L17 19L16 19L16 17L17 17L17 12L18 12L18 11L19 11L19 10L23 10L23 11L24 11L24 9L23 9L23 7L24 7L24 5L23 5L23 4L22 4L22 6L21 6L21 7L20 7L20 6L19 6L19 10L17 10L17 9L18 9L18 8L17 8L17 7L18 7L18 6L17 6L17 5L20 5L20 4L19 4L19 3L16 3L16 2L18 2L18 1ZM16 4L16 5L17 5L17 4ZM11 5L11 6L10 6L10 7L11 7L11 6L12 6L12 8L13 8L13 6L12 6L12 5ZM16 6L16 7L17 7L17 6ZM22 6L22 7L21 7L21 8L20 8L20 9L22 9L22 7L23 7L23 6ZM0 8L0 11L2 11L2 10L1 10L1 9L2 9L2 8ZM10 8L10 10L9 10L9 9L8 9L8 10L9 10L9 11L8 11L8 12L9 12L9 11L11 11L11 10L12 10L12 9L11 9L11 8ZM15 8L15 9L14 9L14 10L16 10L16 9L17 9L17 8ZM14 11L14 12L15 12L15 11ZM25 11L25 12L26 12L26 11ZM6 12L6 13L7 13L7 12ZM12 12L12 13L8 13L8 14L9 14L9 15L10 15L10 17L12 17L12 16L13 16L13 17L15 17L15 16L16 16L16 15L13 15L13 12ZM22 13L22 14L23 14L23 13ZM28 13L28 14L29 14L29 13ZM10 14L10 15L11 15L11 16L12 16L12 14ZM30 14L30 15L31 15L31 14ZM32 15L32 17L33 17L33 15ZM3 16L3 18L4 18L4 19L5 19L5 18L4 18L4 16ZM22 17L22 18L21 18L21 19L22 19L22 21L23 21L23 22L22 22L22 25L21 25L21 24L19 24L19 25L20 25L20 26L21 26L21 27L22 27L22 25L24 25L24 24L26 24L26 21L25 21L25 22L24 22L24 20L23 20L23 19L24 19L24 18L23 18L23 17ZM28 17L28 18L29 18L29 17ZM10 18L10 19L11 19L11 18ZM13 18L13 20L14 20L14 21L15 21L15 20L16 20L16 19L15 19L15 20L14 20L14 18ZM22 18L22 19L23 19L23 18ZM31 18L31 21L32 21L32 23L33 23L33 21L32 21L32 20L33 20L33 18ZM0 19L0 21L1 21L1 19ZM8 20L8 21L9 21L9 20ZM23 23L23 24L24 24L24 23ZM31 24L31 27L32 27L32 26L33 26L33 24ZM10 25L10 26L11 26L11 25ZM25 25L25 28L28 28L28 25ZM26 26L26 27L27 27L27 26ZM8 29L8 30L9 30L9 29ZM16 29L16 30L17 30L17 29ZM25 29L25 30L24 30L24 31L25 31L25 30L26 30L26 31L27 31L27 30L26 30L26 29ZM32 30L32 31L33 31L33 30ZM31 32L31 33L32 33L32 32ZM0 0L0 7L7 7L7 0ZM1 1L1 6L6 6L6 1ZM2 2L2 5L5 5L5 2ZM26 0L26 7L33 7L33 0ZM27 1L27 6L32 6L32 1ZM28 2L28 5L31 5L31 2ZM0 26L0 33L7 33L7 26ZM1 27L1 32L6 32L6 27ZM2 28L2 31L5 31L5 28Z" fill="#000000"/></g></g></svg>
