<?xml version="1.0" encoding="UTF-8"?>
<svg xmlns="http://www.w3.org/2000/svg" version="1.1" width="125" height="125" viewBox="0 0 125 125"><rect x="0" y="0" width="125" height="125" fill="#fafaf5"/><g transform="scale(3.571)"><g transform="translate(1,1)"><path fill-rule="evenodd" d="M8 0L8 4L10 4L10 3L11 3L11 4L12 4L12 2L11 2L11 0ZM12 0L12 1L13 1L13 0ZM17 0L17 1L16 1L16 2L15 2L15 3L14 3L14 2L13 2L13 3L14 3L14 4L13 4L13 5L11 5L11 6L10 6L10 7L9 7L9 5L8 5L8 7L9 7L9 8L10 8L10 7L11 7L11 6L12 6L12 8L11 8L11 9L9 9L9 10L6 10L6 9L7 9L7 8L4 8L4 10L1 10L1 11L0 11L0 13L3 13L3 14L2 14L2 15L3 15L3 17L2 17L2 16L1 16L1 14L0 14L0 17L2 17L2 18L3 18L3 19L1 19L1 18L0 18L0 19L1 19L1 20L0 20L0 22L2 22L2 21L4 21L4 22L3 22L3 23L2 23L2 24L0 24L0 25L4 25L4 24L6 24L6 25L8 25L8 26L10 26L10 30L9 30L9 31L8 31L8 33L9 33L9 32L10 32L10 30L11 30L11 28L12 28L12 29L13 29L13 30L15 30L15 31L14 31L14 32L13 32L13 31L12 31L12 32L11 32L11 33L12 33L12 32L13 32L13 33L15 33L15 32L17 32L17 33L18 33L18 31L19 31L19 33L20 33L20 31L21 31L21 33L23 33L23 32L24 32L24 33L26 33L26 32L27 32L27 33L28 33L28 32L29 32L29 27L31 27L31 29L32 29L32 26L31 26L31 25L30 25L30 24L29 24L29 22L31 22L31 24L32 24L32 25L33 25L33 23L32 23L32 22L31 22L31 21L30 21L30 20L29 20L29 18L30 18L30 19L31 19L31 20L32 20L32 21L33 21L33 19L32 19L32 18L31 18L31 17L29 17L29 16L28 16L28 17L29 17L29 18L27 18L27 19L26 19L26 21L27 21L27 22L28 22L28 23L27 23L27 24L26 24L26 22L24 22L24 21L25 21L25 19L24 19L24 18L25 18L25 16L26 16L26 17L27 17L27 15L28 15L28 13L29 13L29 14L32 14L32 13L29 13L29 12L28 12L28 13L27 13L27 12L26 12L26 11L24 11L24 9L23 9L23 8L25 8L25 6L24 6L24 7L23 7L23 6L22 6L22 7L21 7L21 6L20 6L20 5L22 5L22 4L21 4L21 3L22 3L22 1L21 1L21 0L20 0L20 1L19 1L19 0ZM23 0L23 1L24 1L24 3L25 3L25 1L24 1L24 0ZM18 1L18 3L17 3L17 4L18 4L18 5L16 5L16 4L15 4L15 5L16 5L16 6L15 6L15 8L16 8L16 9L13 9L13 8L14 8L14 6L13 6L13 8L12 8L12 9L11 9L11 10L9 10L9 11L8 11L8 12L9 12L9 13L6 13L6 12L7 12L7 11L5 11L5 12L4 12L4 11L1 11L1 12L4 12L4 14L3 14L3 15L4 15L4 21L5 21L5 22L7 22L7 23L6 23L6 24L7 24L7 23L8 23L8 25L11 25L11 26L12 26L12 25L13 25L13 26L15 26L15 25L13 25L13 24L14 24L14 23L15 23L15 22L13 22L13 21L12 21L12 20L13 20L13 19L12 19L12 20L10 20L10 18L12 18L12 17L13 17L13 18L15 18L15 17L17 17L17 16L15 16L15 17L13 17L13 16L14 16L14 15L15 15L15 14L13 14L13 13L12 13L12 12L13 12L13 11L12 11L12 12L11 12L11 13L10 13L10 11L11 11L11 10L12 10L12 9L13 9L13 10L17 10L17 11L18 11L18 12L20 12L20 13L17 13L17 14L16 14L16 15L18 15L18 16L19 16L19 19L21 19L21 18L23 18L23 17L21 17L21 18L20 18L20 16L19 16L19 15L23 15L23 16L24 16L24 15L23 15L23 13L24 13L24 14L25 14L25 15L27 15L27 13L26 13L26 12L25 12L25 13L24 13L24 11L23 11L23 9L22 9L22 10L21 10L21 11L22 11L22 12L23 12L23 13L22 13L22 14L20 14L20 13L21 13L21 12L20 12L20 9L21 9L21 7L20 7L20 6L19 6L19 7L18 7L18 5L20 5L20 4L19 4L19 3L21 3L21 1L20 1L20 2L19 2L19 1ZM9 2L9 3L10 3L10 2ZM23 4L23 5L24 5L24 4ZM16 6L16 7L17 7L17 9L20 9L20 7L19 7L19 8L18 8L18 7L17 7L17 6ZM22 7L22 8L23 8L23 7ZM0 8L0 9L2 9L2 8ZM27 8L27 11L29 11L29 10L28 10L28 8ZM29 8L29 9L30 9L30 11L32 11L32 12L33 12L33 11L32 11L32 10L31 10L31 9L33 9L33 8ZM25 9L25 10L26 10L26 9ZM18 10L18 11L19 11L19 10ZM14 11L14 13L16 13L16 11ZM5 13L5 15L7 15L7 16L6 16L6 17L7 17L7 18L5 18L5 21L7 21L7 22L8 22L8 23L9 23L9 24L11 24L11 25L12 25L12 24L13 24L13 23L12 23L12 24L11 24L11 22L10 22L10 20L9 20L9 22L8 22L8 19L9 19L9 18L10 18L10 17L12 17L12 16L13 16L13 15L12 15L12 16L11 16L11 14L9 14L9 15L7 15L7 14L6 14L6 13ZM25 13L25 14L26 14L26 13ZM9 15L9 16L7 16L7 17L8 17L8 18L9 18L9 17L10 17L10 15ZM31 15L31 16L32 16L32 17L33 17L33 15ZM6 19L6 20L7 20L7 19ZM14 19L14 21L17 21L17 19L16 19L16 20L15 20L15 19ZM22 19L22 20L23 20L23 19ZM27 19L27 21L28 21L28 22L29 22L29 21L28 21L28 19ZM1 20L1 21L2 21L2 20ZM20 20L20 21L18 21L18 23L19 23L19 24L20 24L20 25L19 25L19 27L20 27L20 25L21 25L21 23L22 23L22 21L21 21L21 20ZM20 21L20 23L21 23L21 21ZM9 22L9 23L10 23L10 22ZM16 22L16 23L17 23L17 22ZM23 23L23 25L22 25L22 26L23 26L23 27L22 27L22 28L23 28L23 29L22 29L22 30L21 30L21 31L22 31L22 32L23 32L23 31L24 31L24 30L26 30L26 29L24 29L24 24L25 24L25 23ZM16 24L16 25L17 25L17 24ZM25 25L25 28L28 28L28 25ZM29 25L29 26L30 26L30 25ZM17 26L17 27L16 27L16 29L17 29L17 30L16 30L16 31L18 31L18 30L19 30L19 31L20 31L20 28L18 28L18 29L17 29L17 27L18 27L18 26ZM26 26L26 27L27 27L27 26ZM8 27L8 29L9 29L9 27ZM12 27L12 28L13 28L13 27ZM14 27L14 29L15 29L15 27ZM27 29L27 31L28 31L28 29ZM25 31L25 32L26 32L26 31ZM32 32L32 33L33 33L33 32ZM0 0L0 7L7 7L7 0ZM1 1L1 6L6 6L6 1ZM2 2L2 5L5 5L5 2ZM26 0L26 7L33 7L33 0ZM27 1L27 6L32 6L32 1ZM28 2L28 5L31 5L31 2ZM0 26L0 33L7 33L7 26ZM1 27L1 32L6 32L6 27ZM2 28L2 31L5 31L5 28Z" fill="#000000"/></g></g></svg>
