<?xml version="1.0" encoding="UTF-8"?>
<svg xmlns="http://www.w3.org/2000/svg" version="1.1" width="125" height="125" viewBox="0 0 125 125"><rect x="0" y="0" width="125" height="125" fill="#fafaf5"/><g transform="scale(3.571)"><g transform="translate(1,1)"><path fill-rule="evenodd" d="M8 0L8 1L9 1L9 2L8 2L8 5L9 5L9 4L11 4L11 5L10 5L10 10L9 10L9 11L8 11L8 10L6 10L6 11L4 11L4 10L5 10L5 9L4 9L4 8L0 8L0 10L1 10L1 11L2 11L2 12L0 12L0 17L1 17L1 18L3 18L3 19L2 19L2 20L1 20L1 21L0 21L0 22L2 22L2 23L1 23L1 24L0 24L0 25L1 25L1 24L2 24L2 25L5 25L5 24L2 24L2 23L3 23L3 22L2 22L2 21L4 21L4 22L5 22L5 23L7 23L7 24L6 24L6 25L8 25L8 26L9 26L9 27L10 27L10 28L9 28L9 29L8 29L8 33L9 33L9 32L10 32L10 33L14 33L14 32L13 32L13 30L14 30L14 29L12 29L12 28L14 28L14 27L15 27L15 31L17 31L17 32L16 32L16 33L22 33L22 32L25 32L25 33L29 33L29 32L25 32L25 31L27 31L27 30L25 30L25 29L30 29L30 30L29 30L29 31L31 31L31 28L32 28L32 27L31 27L31 26L32 26L32 24L33 24L33 21L31 21L31 20L32 20L32 18L33 18L33 15L32 15L32 14L31 14L31 15L30 15L30 14L29 14L29 15L28 15L28 18L27 18L27 15L26 15L26 14L25 14L25 13L26 13L26 12L25 12L25 11L24 11L24 9L26 9L26 11L27 11L27 14L28 14L28 13L29 13L29 12L30 12L30 11L31 11L31 13L33 13L33 8L32 8L32 9L31 9L31 8L28 8L28 9L30 9L30 11L29 11L29 12L28 12L28 11L27 11L27 9L26 9L26 8L25 8L25 2L24 2L24 0L23 0L23 3L22 3L22 4L21 4L21 3L20 3L20 2L22 2L22 0L21 0L21 1L20 1L20 0L17 0L17 1L16 1L16 0L12 0L12 1L11 1L11 0L10 0L10 1L9 1L9 0ZM14 1L14 2L11 2L11 4L12 4L12 3L13 3L13 5L12 5L12 6L11 6L11 8L12 8L12 6L13 6L13 8L14 8L14 9L15 9L15 7L16 7L16 6L15 6L15 5L16 5L16 4L17 4L17 3L19 3L19 2L20 2L20 1L19 1L19 2L18 2L18 1L17 1L17 3L16 3L16 1ZM14 3L14 5L13 5L13 6L14 6L14 7L15 7L15 6L14 6L14 5L15 5L15 4L16 4L16 3ZM22 4L22 5L20 5L20 6L19 6L19 7L18 7L18 6L17 6L17 7L18 7L18 9L16 9L16 10L14 10L14 11L11 11L11 13L9 13L9 12L8 12L8 11L6 11L6 12L7 12L7 13L5 13L5 12L2 12L2 14L3 14L3 16L2 16L2 15L1 15L1 17L3 17L3 16L4 16L4 15L6 15L6 16L7 16L7 15L6 15L6 14L7 14L7 13L8 13L8 16L9 16L9 17L8 17L8 19L9 19L9 17L10 17L10 18L11 18L11 19L10 19L10 20L9 20L9 21L11 21L11 23L10 23L10 22L7 22L7 21L8 21L8 20L7 20L7 19L3 19L3 20L4 20L4 21L5 21L5 22L7 22L7 23L9 23L9 24L11 24L11 23L14 23L14 22L15 22L15 24L12 24L12 26L11 26L11 25L10 25L10 27L11 27L11 28L12 28L12 26L13 26L13 27L14 27L14 26L15 26L15 27L16 27L16 26L15 26L15 25L17 25L17 26L19 26L19 25L20 25L20 24L21 24L21 25L22 25L22 26L21 26L21 27L22 27L22 26L23 26L23 25L24 25L24 24L28 24L28 23L30 23L30 26L29 26L29 27L30 27L30 26L31 26L31 24L32 24L32 23L31 23L31 22L29 22L29 20L31 20L31 18L32 18L32 17L30 17L30 19L29 19L29 18L28 18L28 20L27 20L27 18L26 18L26 17L25 17L25 15L24 15L24 12L23 12L23 11L20 11L20 10L23 10L23 9L24 9L24 8L22 8L22 5L23 5L23 7L24 7L24 4ZM8 6L8 7L9 7L9 6ZM20 6L20 9L19 9L19 10L17 10L17 11L15 11L15 12L14 12L14 14L13 14L13 12L12 12L12 13L11 13L11 14L10 14L10 15L11 15L11 16L12 16L12 17L13 17L13 16L12 16L12 14L13 14L13 15L14 15L14 18L13 18L13 21L15 21L15 19L16 19L16 24L17 24L17 25L19 25L19 24L20 24L20 23L18 23L18 20L19 20L19 22L20 22L20 21L21 21L21 23L22 23L22 25L23 25L23 24L24 24L24 23L28 23L28 22L27 22L27 21L25 21L25 22L24 22L24 20L25 20L25 18L24 18L24 17L23 17L23 16L24 16L24 15L23 15L23 16L22 16L22 13L23 13L23 12L22 12L22 13L21 13L21 12L20 12L20 11L19 11L19 10L20 10L20 9L22 9L22 8L21 8L21 6ZM6 8L6 9L7 9L7 8ZM8 8L8 9L9 9L9 8ZM1 9L1 10L2 10L2 9ZM11 9L11 10L12 10L12 9ZM17 11L17 12L18 12L18 11ZM3 13L3 14L5 14L5 13ZM14 14L14 15L16 15L16 16L15 16L15 17L16 17L16 19L20 19L20 20L22 20L22 21L23 21L23 20L22 20L22 19L24 19L24 18L22 18L22 17L19 17L19 14ZM20 14L20 15L21 15L21 14ZM5 17L5 18L7 18L7 17ZM17 17L17 18L18 18L18 17ZM21 18L21 19L22 19L22 18ZM11 19L11 20L12 20L12 19ZM6 20L6 21L7 21L7 20ZM22 22L22 23L23 23L23 22ZM17 23L17 24L18 24L18 23ZM13 25L13 26L14 26L14 25ZM25 25L25 28L28 28L28 25ZM26 26L26 27L27 27L27 26ZM17 27L17 28L16 28L16 30L18 30L18 32L19 32L19 31L20 31L20 30L21 30L21 32L22 32L22 30L21 30L21 29L19 29L19 30L18 30L18 28L19 28L19 27ZM11 29L11 30L9 30L9 31L10 31L10 32L12 32L12 31L11 31L11 30L12 30L12 29ZM23 29L23 30L24 30L24 31L25 31L25 30L24 30L24 29ZM32 29L32 30L33 30L33 29ZM32 31L32 32L33 32L33 31ZM30 32L30 33L31 33L31 32ZM0 0L0 7L7 7L7 0ZM1 1L1 6L6 6L6 1ZM2 2L2 5L5 5L5 2ZM26 0L26 7L33 7L33 0ZM27 1L27 6L32 6L32 1ZM28 2L28 5L31 5L31 2ZM0 26L0 33L7 33L7 26ZM1 27L1 32L6 32L6 27ZM2 28L2 31L5 31L5 28Z" fill="#000000"/></g></g></svg>
