<?xml version="1.0" encoding="UTF-8"?>
<svg xmlns="http://www.w3.org/2000/svg" version="1.1" width="125" height="125" viewBox="0 0 125 125"><rect x="0" y="0" width="125" height="125" fill="#fafaf5"/><g transform="scale(3.571)"><g transform="translate(1,1)"><path fill-rule="evenodd" d="M9 0L9 1L8 1L8 2L9 2L9 3L8 3L8 4L10 4L10 7L11 7L11 4L12 4L12 5L13 5L13 6L12 6L12 9L13 9L13 8L14 8L14 9L15 9L15 10L17 10L17 9L19 9L19 10L20 10L20 9L21 9L21 8L22 8L22 9L23 9L23 10L22 10L22 11L21 11L21 12L20 12L20 13L19 13L19 12L17 12L17 11L16 11L16 13L12 13L12 11L13 11L13 10L11 10L11 11L10 11L10 9L11 9L11 8L6 8L6 9L5 9L5 8L0 8L0 9L1 9L1 11L0 11L0 16L1 16L1 15L3 15L3 16L4 16L4 17L3 17L3 20L5 20L5 19L4 19L4 18L6 18L6 19L7 19L7 20L6 20L6 21L5 21L5 22L3 22L3 23L4 23L4 24L2 24L2 25L8 25L8 27L9 27L9 28L8 28L8 33L9 33L9 29L12 29L12 30L13 30L13 31L12 31L12 33L13 33L13 32L14 32L14 33L16 33L16 32L17 32L17 33L18 33L18 32L17 32L17 31L16 31L16 30L18 30L18 31L19 31L19 32L20 32L20 33L21 33L21 32L22 32L22 33L23 33L23 31L24 31L24 30L22 30L22 31L21 31L21 30L20 30L20 28L22 28L22 29L23 29L23 28L24 28L24 29L25 29L25 31L26 31L26 33L27 33L27 32L28 32L28 31L27 31L27 30L29 30L29 32L31 32L31 33L32 33L32 32L31 32L31 30L33 30L33 29L32 29L32 28L33 28L33 27L32 27L32 26L33 26L33 25L32 25L32 24L33 24L33 23L32 23L32 22L33 22L33 21L32 21L32 20L33 20L33 19L32 19L32 18L33 18L33 17L32 17L32 16L33 16L33 15L31 15L31 13L32 13L32 14L33 14L33 11L32 11L32 10L33 10L33 9L32 9L32 8L31 8L31 9L30 9L30 8L29 8L29 9L30 9L30 10L29 10L29 11L28 11L28 10L27 10L27 9L28 9L28 8L27 8L27 9L26 9L26 8L25 8L25 9L26 9L26 10L27 10L27 11L28 11L28 12L27 12L27 13L26 13L26 11L25 11L25 10L24 10L24 9L23 9L23 6L22 6L22 5L21 5L21 6L20 6L20 7L19 7L19 6L18 6L18 5L16 5L16 4L19 4L19 5L20 5L20 4L21 4L21 3L22 3L22 4L23 4L23 5L24 5L24 4L25 4L25 3L24 3L24 2L25 2L25 1L24 1L24 0L23 0L23 1L24 1L24 2L21 2L21 3L20 3L20 4L19 4L19 3L17 3L17 2L16 2L16 4L12 4L12 2L13 2L13 1L11 1L11 2L10 2L10 0ZM15 0L15 1L17 1L17 0ZM19 0L19 1L20 1L20 0ZM21 0L21 1L22 1L22 0ZM14 2L14 3L15 3L15 2ZM10 3L10 4L11 4L11 3ZM8 5L8 7L9 7L9 5ZM13 6L13 7L14 7L14 8L15 8L15 7L16 7L16 9L17 9L17 8L18 8L18 6L17 6L17 7L16 7L16 6L15 6L15 7L14 7L14 6ZM21 6L21 7L20 7L20 8L19 8L19 9L20 9L20 8L21 8L21 7L22 7L22 6ZM24 6L24 7L25 7L25 6ZM2 9L2 10L3 10L3 11L5 11L5 13L6 13L6 14L5 14L5 15L4 15L4 12L1 12L1 13L3 13L3 15L4 15L4 16L5 16L5 15L6 15L6 16L7 16L7 15L8 15L8 17L6 17L6 18L7 18L7 19L8 19L8 20L9 20L9 21L11 21L11 22L9 22L9 23L8 23L8 25L10 25L10 24L11 24L11 26L13 26L13 27L12 27L12 29L15 29L15 30L16 30L16 29L17 29L17 28L18 28L18 29L19 29L19 28L18 28L18 27L20 27L20 26L22 26L22 27L23 27L23 26L24 26L24 24L23 24L23 23L25 23L25 21L24 21L24 22L21 22L21 21L22 21L22 20L21 20L21 21L20 21L20 20L18 20L18 19L21 19L21 17L22 17L22 19L23 19L23 20L26 20L26 21L27 21L27 22L26 22L26 24L27 24L27 23L28 23L28 24L29 24L29 21L27 21L27 20L29 20L29 17L31 17L31 16L29 16L29 17L28 17L28 19L27 19L27 18L25 18L25 19L24 19L24 18L23 18L23 17L22 17L22 16L23 16L23 15L24 15L24 16L25 16L25 15L27 15L27 16L26 16L26 17L27 17L27 16L28 16L28 15L27 15L27 14L29 14L29 13L31 13L31 12L32 12L32 11L31 11L31 10L30 10L30 11L31 11L31 12L29 12L29 13L27 13L27 14L26 14L26 13L24 13L24 12L25 12L25 11L24 11L24 10L23 10L23 11L24 11L24 12L23 12L23 13L22 13L22 12L21 12L21 13L20 13L20 14L18 14L18 15L16 15L16 17L17 17L17 18L15 18L15 17L14 17L14 16L15 16L15 15L14 15L14 16L13 16L13 17L12 17L12 15L13 15L13 14L12 14L12 13L11 13L11 12L10 12L10 13L9 13L9 14L8 14L8 12L7 12L7 11L6 11L6 10L7 10L7 9L6 9L6 10L5 10L5 9L4 9L4 10L3 10L3 9ZM14 11L14 12L15 12L15 11ZM6 12L6 13L7 13L7 12ZM10 13L10 14L9 14L9 15L10 15L10 16L9 16L9 19L10 19L10 16L11 16L11 15L10 15L10 14L11 14L11 13ZM16 13L16 14L17 14L17 13ZM23 13L23 14L22 14L22 15L19 15L19 16L20 16L20 17L19 17L19 18L20 18L20 17L21 17L21 16L22 16L22 15L23 15L23 14L24 14L24 13ZM6 14L6 15L7 15L7 14ZM17 16L17 17L18 17L18 16ZM0 18L0 19L1 19L1 20L0 20L0 25L1 25L1 22L2 22L2 21L1 21L1 20L2 20L2 19L1 19L1 18ZM11 18L11 21L12 21L12 22L13 22L13 23L12 23L12 25L13 25L13 24L14 24L14 25L16 25L16 26L15 26L15 27L14 27L14 28L15 28L15 29L16 29L16 27L17 27L17 26L20 26L20 25L21 25L21 24L22 24L22 25L23 25L23 24L22 24L22 23L21 23L21 22L20 22L20 21L18 21L18 20L17 20L17 19L18 19L18 18L17 18L17 19L16 19L16 20L17 20L17 21L18 21L18 23L19 23L19 22L20 22L20 23L21 23L21 24L20 24L20 25L18 25L18 24L14 24L14 23L16 23L16 21L12 21L12 19L13 19L13 18ZM30 18L30 19L31 19L31 18ZM14 19L14 20L15 20L15 19ZM26 19L26 20L27 20L27 19ZM30 20L30 21L31 21L31 20ZM6 21L6 22L5 22L5 24L7 24L7 23L6 23L6 22L8 22L8 21ZM30 24L30 25L29 25L29 27L31 27L31 28L29 28L29 30L31 30L31 28L32 28L32 27L31 27L31 26L30 26L30 25L31 25L31 24ZM25 25L25 28L28 28L28 25ZM9 26L9 27L10 27L10 28L11 28L11 27L10 27L10 26ZM26 26L26 27L27 27L27 26ZM26 29L26 30L27 30L27 29ZM19 30L19 31L20 31L20 32L21 32L21 31L20 31L20 30ZM14 31L14 32L15 32L15 31ZM24 32L24 33L25 33L25 32ZM0 0L0 7L7 7L7 0ZM1 1L1 6L6 6L6 1ZM2 2L2 5L5 5L5 2ZM26 0L26 7L33 7L33 0ZM27 1L27 6L32 6L32 1ZM28 2L28 5L31 5L31 2ZM0 26L0 33L7 33L7 26ZM1 27L1 32L6 32L6 27ZM2 28L2 31L5 31L5 28Z" fill="#000000"/></g></g></svg>
