<?xml version="1.0" encoding="UTF-8"?>
<svg xmlns="http://www.w3.org/2000/svg" version="1.1" width="125" height="125" viewBox="0 0 125 125"><rect x="0" y="0" width="125" height="125" fill="#fafaf5"/><g transform="scale(3.571)"><g transform="translate(1,1)"><path fill-rule="evenodd" d="M9 0L9 1L8 1L8 3L9 3L9 4L8 4L8 8L6 8L6 9L4 9L4 8L3 8L3 9L2 9L2 8L0 8L0 12L1 12L1 17L0 17L0 21L1 21L1 22L0 22L0 23L1 23L1 24L0 24L0 25L1 25L1 24L2 24L2 25L8 25L8 27L9 27L9 28L10 28L10 29L8 29L8 30L10 30L10 31L12 31L12 32L13 32L13 30L14 30L14 32L16 32L16 33L17 33L17 32L18 32L18 30L19 30L19 29L18 29L18 28L19 28L19 27L17 27L17 26L16 26L16 27L15 27L15 25L19 25L19 26L20 26L20 30L21 30L21 32L20 32L20 31L19 31L19 32L20 32L20 33L22 33L22 30L21 30L21 29L23 29L23 26L24 26L24 30L23 30L23 33L25 33L25 31L26 31L26 33L30 33L30 32L29 32L29 31L31 31L31 29L32 29L32 28L31 28L31 29L30 29L30 30L29 30L29 27L30 27L30 23L31 23L31 22L29 22L29 24L28 24L28 22L27 22L27 21L26 21L26 20L27 20L27 18L28 18L28 20L29 20L29 19L30 19L30 17L29 17L29 15L28 15L28 17L27 17L27 15L26 15L26 17L27 17L27 18L26 18L26 20L25 20L25 18L24 18L24 17L25 17L25 15L24 15L24 14L25 14L25 13L26 13L26 14L27 14L27 9L29 9L29 11L28 11L28 12L30 12L30 9L32 9L32 11L31 11L31 13L32 13L32 14L33 14L33 13L32 13L32 11L33 11L33 9L32 9L32 8L30 8L30 9L29 9L29 8L26 8L26 9L24 9L24 8L25 8L25 5L24 5L24 4L23 4L23 3L22 3L22 4L21 4L21 3L20 3L20 5L19 5L19 6L18 6L18 7L17 7L17 6L16 6L16 7L17 7L17 8L15 8L15 4L16 4L16 5L17 5L17 4L16 4L16 3L19 3L19 1L21 1L21 0L16 0L16 1L14 1L14 0L12 0L12 1L11 1L11 2L9 2L9 1L10 1L10 0ZM22 0L22 2L24 2L24 0ZM16 1L16 2L14 2L14 3L16 3L16 2L18 2L18 1ZM12 3L12 4L9 4L9 5L10 5L10 6L9 6L9 7L10 7L10 8L8 8L8 11L9 11L9 13L8 13L8 12L7 12L7 11L6 11L6 12L7 12L7 13L4 13L4 12L5 12L5 11L4 11L4 10L2 10L2 9L1 9L1 10L2 10L2 13L4 13L4 14L5 14L5 15L2 15L2 18L1 18L1 21L2 21L2 20L3 20L3 19L5 19L5 16L8 16L8 14L10 14L10 13L12 13L12 12L13 12L13 15L16 15L16 16L15 16L15 17L13 17L13 16L12 16L12 14L11 14L11 16L12 16L12 17L6 17L6 18L7 18L7 19L6 19L6 20L5 20L5 21L4 21L4 23L3 23L3 22L2 22L2 23L3 23L3 24L4 24L4 23L5 23L5 22L7 22L7 21L9 21L9 20L10 20L10 22L9 22L9 24L10 24L10 25L9 25L9 26L10 26L10 28L11 28L11 29L10 29L10 30L12 30L12 28L14 28L14 29L15 29L15 31L17 31L17 30L18 30L18 29L17 29L17 28L16 28L16 29L15 29L15 27L13 27L13 25L14 25L14 24L15 24L15 23L16 23L16 24L18 24L18 23L19 23L19 22L20 22L20 23L21 23L21 21L20 21L20 20L19 20L19 22L17 22L17 23L16 23L16 20L17 20L17 21L18 21L18 20L17 20L17 19L22 19L22 21L23 21L23 22L22 22L22 25L21 25L21 24L19 24L19 25L20 25L20 26L21 26L21 27L22 27L22 25L24 25L24 24L26 24L26 21L25 21L25 22L24 22L24 20L23 20L23 19L24 19L24 18L23 18L23 17L22 17L22 18L20 18L20 15L21 15L21 14L22 14L22 16L24 16L24 15L23 15L23 14L24 14L24 12L22 12L22 13L21 13L21 12L19 12L19 11L18 11L18 8L19 8L19 10L23 10L23 11L24 11L24 9L23 9L23 7L24 7L24 5L23 5L23 4L22 4L22 6L21 6L21 5L20 5L20 6L19 6L19 7L18 7L18 8L17 8L17 9L16 9L16 10L14 10L14 9L15 9L15 8L14 8L14 6L13 6L13 3ZM11 5L11 6L10 6L10 7L11 7L11 6L12 6L12 8L13 8L13 6L12 6L12 5ZM20 6L20 7L19 7L19 8L20 8L20 9L22 9L22 7L23 7L23 6L22 6L22 7L21 7L21 6ZM10 8L10 10L9 10L9 11L11 11L11 10L12 10L12 9L11 9L11 8ZM6 9L6 10L7 10L7 9ZM3 11L3 12L4 12L4 11ZM14 11L14 12L15 12L15 11ZM25 11L25 12L26 12L26 11ZM17 12L17 14L18 14L18 15L17 15L17 17L16 17L16 19L15 19L15 20L14 20L14 18L13 18L13 20L12 20L12 19L10 19L10 18L9 18L9 19L7 19L7 20L6 20L6 21L7 21L7 20L9 20L9 19L10 19L10 20L11 20L11 22L10 22L10 24L11 24L11 25L10 25L10 26L11 26L11 28L12 28L12 24L14 24L14 23L15 23L15 22L14 22L14 21L15 21L15 20L16 20L16 19L17 19L17 18L18 18L18 17L19 17L19 16L18 16L18 15L19 15L19 14L20 14L20 13L19 13L19 12ZM22 13L22 14L23 14L23 13ZM28 13L28 14L29 14L29 13ZM6 14L6 15L7 15L7 14ZM30 14L30 15L31 15L31 14ZM9 15L9 16L10 16L10 15ZM32 15L32 17L33 17L33 15ZM3 16L3 17L4 17L4 16ZM28 17L28 18L29 18L29 17ZM22 18L22 19L23 19L23 18ZM31 18L31 21L32 21L32 23L33 23L33 21L32 21L32 20L33 20L33 18ZM13 20L13 21L14 21L14 20ZM6 23L6 24L8 24L8 23ZM23 23L23 24L24 24L24 23ZM31 24L31 27L32 27L32 26L33 26L33 24ZM25 25L25 28L28 28L28 25ZM26 26L26 27L27 27L27 26ZM16 29L16 30L17 30L17 29ZM25 29L25 30L24 30L24 31L25 31L25 30L26 30L26 31L27 31L27 30L26 30L26 29ZM32 30L32 31L33 31L33 30ZM8 31L8 33L9 33L9 31ZM10 32L10 33L11 33L11 32ZM31 32L31 33L32 33L32 32ZM0 0L0 7L7 7L7 0ZM1 1L1 6L6 6L6 1ZM2 2L2 5L5 5L5 2ZM26 0L26 7L33 7L33 0ZM27 1L27 6L32 6L32 1ZM28 2L28 5L31 5L31 2ZM0 26L0 33L7 33L7 26ZM1 27L1 32L6 32L6 27ZM2 28L2 31L5 31L5 28Z" fill="#000000"/></g></g></svg>
