<?xml version="1.0" encoding="UTF-8"?>
<svg xmlns="http://www.w3.org/2000/svg" version="1.1" width="125" height="125" viewBox="0 0 125 125"><rect x="0" y="0" width="125" height="125" fill="#fafaf5"/><g transform="scale(3.571)"><g transform="translate(1,1)"><path fill-rule="evenodd" d="M8 0L8 1L9 1L9 2L8 2L8 5L9 5L9 4L11 4L11 5L10 5L10 10L9 10L9 8L8 8L8 9L7 9L7 8L6 8L6 9L5 9L5 11L7 11L7 12L5 12L5 14L4 14L4 12L3 12L3 11L2 11L2 9L3 9L3 10L4 10L4 8L0 8L0 9L1 9L1 10L0 10L0 12L1 12L1 13L0 13L0 14L1 14L1 15L2 15L2 14L4 14L4 15L3 15L3 18L4 18L4 19L7 19L7 18L4 18L4 15L5 15L5 16L6 16L6 17L7 17L7 16L8 16L8 19L9 19L9 21L10 21L10 18L9 18L9 16L10 16L10 17L11 17L11 16L12 16L12 17L13 17L13 16L12 16L12 14L13 14L13 15L14 15L14 18L13 18L13 21L15 21L15 19L16 19L16 24L17 24L17 25L15 25L15 26L14 26L14 25L13 25L13 26L12 26L12 24L15 24L15 22L14 22L14 23L11 23L11 22L10 22L10 23L11 23L11 24L9 24L9 22L8 22L8 23L7 23L7 22L6 22L6 23L5 23L5 22L4 22L4 20L3 20L3 19L2 19L2 20L3 20L3 21L2 21L2 23L1 23L1 24L0 24L0 25L1 25L1 24L3 24L3 25L4 25L4 24L5 24L5 25L7 25L7 24L8 24L8 26L9 26L9 29L8 29L8 33L14 33L14 32L13 32L13 30L14 30L14 29L12 29L12 28L14 28L14 27L15 27L15 31L17 31L17 32L16 32L16 33L22 33L22 32L25 32L25 33L29 33L29 32L25 32L25 31L27 31L27 30L25 30L25 29L30 29L30 30L29 30L29 31L31 31L31 28L32 28L32 27L31 27L31 26L32 26L32 24L33 24L33 21L31 21L31 20L32 20L32 18L33 18L33 15L32 15L32 14L31 14L31 15L30 15L30 14L29 14L29 15L28 15L28 18L27 18L27 15L26 15L26 14L25 14L25 13L26 13L26 12L25 12L25 11L24 11L24 9L26 9L26 11L27 11L27 14L28 14L28 13L29 13L29 12L30 12L30 11L31 11L31 13L33 13L33 8L32 8L32 9L31 9L31 8L28 8L28 9L30 9L30 11L29 11L29 12L28 12L28 11L27 11L27 9L26 9L26 8L25 8L25 2L24 2L24 0L23 0L23 3L22 3L22 4L21 4L21 2L22 2L22 0L21 0L21 2L19 2L19 1L20 1L20 0L17 0L17 1L16 1L16 0L12 0L12 1L11 1L11 0L10 0L10 1L9 1L9 0ZM14 1L14 2L11 2L11 4L12 4L12 3L13 3L13 5L12 5L12 6L11 6L11 8L12 8L12 6L13 6L13 8L14 8L14 9L15 9L15 7L16 7L16 6L15 6L15 5L16 5L16 4L17 4L17 3L19 3L19 4L20 4L20 3L19 3L19 2L18 2L18 1L17 1L17 3L16 3L16 1ZM14 3L14 5L13 5L13 6L14 6L14 7L15 7L15 6L14 6L14 5L15 5L15 4L16 4L16 3ZM22 4L22 5L21 5L21 8L22 8L22 9L20 9L20 10L19 10L19 8L18 8L18 9L16 9L16 10L14 10L14 11L11 11L11 13L10 13L10 14L9 14L9 12L8 12L8 13L6 13L6 14L5 14L5 15L6 15L6 16L7 16L7 15L8 15L8 14L9 14L9 15L10 15L10 16L11 16L11 13L12 13L12 12L13 12L13 14L14 14L14 15L16 15L16 16L15 16L15 17L16 17L16 19L20 19L20 20L22 20L22 21L23 21L23 20L22 20L22 19L24 19L24 18L25 18L25 20L24 20L24 22L25 22L25 21L27 21L27 22L28 22L28 23L24 23L24 24L23 24L23 25L22 25L22 23L23 23L23 22L22 22L22 23L21 23L21 21L20 21L20 22L19 22L19 20L18 20L18 21L17 21L17 22L19 22L19 23L20 23L20 24L19 24L19 25L17 25L17 26L19 26L19 25L20 25L20 24L21 24L21 25L22 25L22 26L21 26L21 27L22 27L22 26L23 26L23 25L24 25L24 24L28 24L28 23L30 23L30 26L29 26L29 27L30 27L30 26L31 26L31 24L32 24L32 23L31 23L31 22L29 22L29 20L31 20L31 18L32 18L32 17L30 17L30 19L29 19L29 18L28 18L28 20L27 20L27 18L26 18L26 17L25 17L25 15L24 15L24 12L23 12L23 11L21 11L21 13L22 13L22 16L23 16L23 17L24 17L24 18L22 18L22 17L19 17L19 14L18 14L18 13L17 13L17 14L14 14L14 12L15 12L15 11L17 11L17 12L18 12L18 11L19 11L19 13L20 13L20 10L23 10L23 9L24 9L24 8L22 8L22 5L23 5L23 7L24 7L24 4ZM17 5L17 7L18 7L18 5ZM8 6L8 7L9 7L9 6ZM19 6L19 7L20 7L20 6ZM6 9L6 10L7 10L7 9ZM11 9L11 10L12 10L12 9ZM8 10L8 11L9 11L9 10ZM17 10L17 11L18 11L18 10ZM22 12L22 13L23 13L23 12ZM1 13L1 14L2 14L2 13ZM6 14L6 15L7 15L7 14ZM20 14L20 15L21 15L21 14ZM23 15L23 16L24 16L24 15ZM0 16L0 17L1 17L1 18L2 18L2 16ZM17 17L17 18L18 18L18 17ZM20 18L20 19L22 19L22 18ZM11 19L11 20L12 20L12 19ZM0 20L0 22L1 22L1 20ZM6 20L6 21L8 21L8 20ZM3 22L3 24L4 24L4 22ZM6 23L6 24L7 24L7 23ZM17 23L17 24L18 24L18 23ZM9 25L9 26L10 26L10 27L11 27L11 28L10 28L10 29L9 29L9 30L10 30L10 31L9 31L9 32L12 32L12 31L11 31L11 30L12 30L12 29L11 29L11 28L12 28L12 26L10 26L10 25ZM25 25L25 28L28 28L28 25ZM13 26L13 27L14 27L14 26ZM15 26L15 27L16 27L16 26ZM26 26L26 27L27 27L27 26ZM17 27L17 28L16 28L16 30L18 30L18 32L19 32L19 31L20 31L20 30L21 30L21 32L22 32L22 30L21 30L21 29L19 29L19 30L18 30L18 28L19 28L19 27ZM23 29L23 30L24 30L24 31L25 31L25 30L24 30L24 29ZM32 29L32 30L33 30L33 29ZM32 31L32 32L33 32L33 31ZM30 32L30 33L31 33L31 32ZM0 0L0 7L7 7L7 0ZM1 1L1 6L6 6L6 1ZM2 2L2 5L5 5L5 2ZM26 0L26 7L33 7L33 0ZM27 1L27 6L32 6L32 1ZM28 2L28 5L31 5L31 2ZM0 26L0 33L7 33L7 26ZM1 27L1 32L6 32L6 27ZM2 28L2 31L5 31L5 28Z" fill="#000000"/></g></g></svg>
