<?xml version="1.0" encoding="UTF-8"?>
<svg xmlns="http://www.w3.org/2000/svg" version="1.1" width="125" height="125" viewBox="0 0 125 125"><rect x="0" y="0" width="125" height="125" fill="#fafaf5"/><g transform="scale(3.571)"><g transform="translate(1,1)"><path fill-rule="evenodd" d="M10 0L10 2L11 2L11 0ZM12 0L12 1L13 1L13 2L12 2L12 4L13 4L13 3L14 3L14 4L15 4L15 5L17 5L17 4L19 4L19 5L18 5L18 7L19 7L19 8L17 8L17 6L16 6L16 8L17 8L17 10L18 10L18 12L14 12L14 11L16 11L16 9L12 9L12 7L13 7L13 5L11 5L11 6L10 6L10 4L11 4L11 3L8 3L8 4L9 4L9 5L8 5L8 7L9 7L9 8L6 8L6 9L10 9L10 11L11 11L11 9L12 9L12 10L13 10L13 11L12 11L12 13L13 13L13 12L14 12L14 13L16 13L16 14L15 14L15 15L14 15L14 16L15 16L15 17L12 17L12 15L13 15L13 14L11 14L11 16L10 16L10 14L9 14L9 13L11 13L11 12L8 12L8 11L9 11L9 10L8 10L8 11L7 11L7 10L4 10L4 9L5 9L5 8L0 8L0 10L2 10L2 11L0 11L0 13L1 13L1 14L3 14L3 13L1 13L1 12L4 12L4 13L5 13L5 11L7 11L7 12L6 12L6 13L7 13L7 14L4 14L4 15L7 15L7 14L8 14L8 17L9 17L9 18L8 18L8 19L7 19L7 18L6 18L6 17L7 17L7 16L4 16L4 17L3 17L3 21L4 21L4 17L5 17L5 18L6 18L6 19L7 19L7 20L5 20L5 22L4 22L4 23L5 23L5 22L6 22L6 23L7 23L7 24L4 24L4 25L7 25L7 24L8 24L8 27L9 27L9 28L8 28L8 33L10 33L10 32L11 32L11 33L12 33L12 31L13 31L13 30L10 30L10 28L11 28L11 27L10 27L10 26L9 26L9 24L10 24L10 25L12 25L12 26L13 26L13 27L12 27L12 29L13 29L13 28L14 28L14 29L15 29L15 28L17 28L17 29L16 29L16 30L15 30L15 31L14 31L14 32L15 32L15 33L16 33L16 31L18 31L18 32L17 32L17 33L18 33L18 32L20 32L20 33L21 33L21 32L22 32L22 33L23 33L23 31L24 31L24 30L22 30L22 31L21 31L21 30L20 30L20 28L22 28L22 29L23 29L23 28L24 28L24 29L25 29L25 31L26 31L26 33L27 33L27 32L28 32L28 31L27 31L27 30L29 30L29 32L31 32L31 33L32 33L32 32L31 32L31 30L33 30L33 28L32 28L32 26L33 26L33 25L32 25L32 24L33 24L33 23L32 23L32 22L33 22L33 21L32 21L32 20L33 20L33 19L32 19L32 18L33 18L33 17L32 17L32 16L33 16L33 15L31 15L31 13L32 13L32 14L33 14L33 11L32 11L32 10L33 10L33 9L32 9L32 8L31 8L31 9L30 9L30 8L29 8L29 9L30 9L30 10L29 10L29 11L28 11L28 10L27 10L27 9L28 9L28 8L27 8L27 9L26 9L26 8L25 8L25 9L26 9L26 10L27 10L27 11L28 11L28 12L27 12L27 13L26 13L26 11L25 11L25 10L24 10L24 9L23 9L23 6L22 6L22 5L20 5L20 4L21 4L21 3L22 3L22 4L23 4L23 5L24 5L24 4L25 4L25 3L24 3L24 2L25 2L25 1L24 1L24 0L23 0L23 1L24 1L24 2L21 2L21 1L22 1L22 0L21 0L21 1L20 1L20 0L17 0L17 1L16 1L16 0ZM8 1L8 2L9 2L9 1ZM18 1L18 2L16 2L16 4L17 4L17 3L18 3L18 2L19 2L19 3L21 3L21 2L20 2L20 1ZM14 2L14 3L15 3L15 2ZM19 5L19 7L20 7L20 5ZM9 6L9 7L10 7L10 6ZM11 6L11 7L12 7L12 6ZM14 6L14 8L15 8L15 6ZM21 6L21 7L22 7L22 6ZM24 6L24 7L25 7L25 6ZM10 8L10 9L11 9L11 8ZM19 8L19 9L18 9L18 10L19 10L19 12L21 12L21 13L20 13L20 14L19 14L19 13L17 13L17 14L18 14L18 15L16 15L16 17L15 17L15 18L16 18L16 19L17 19L17 20L16 20L16 21L14 21L14 20L15 20L15 19L14 19L14 20L13 20L13 21L12 21L12 19L13 19L13 18L12 18L12 17L11 17L11 18L9 18L9 19L8 19L8 20L10 20L10 21L9 21L9 23L8 23L8 21L6 21L6 22L7 22L7 23L8 23L8 24L9 24L9 23L10 23L10 21L11 21L11 22L13 22L13 23L12 23L12 25L15 25L15 26L16 26L16 27L17 27L17 28L18 28L18 29L17 29L17 30L18 30L18 31L20 31L20 32L21 32L21 31L20 31L20 30L19 30L19 27L20 27L20 26L22 26L22 27L23 27L23 26L24 26L24 24L23 24L23 23L25 23L25 21L24 21L24 22L21 22L21 21L22 21L22 20L21 20L21 17L22 17L22 19L23 19L23 20L26 20L26 21L27 21L27 22L26 22L26 24L27 24L27 23L28 23L28 24L29 24L29 21L27 21L27 20L29 20L29 17L31 17L31 16L29 16L29 17L28 17L28 19L27 19L27 18L25 18L25 19L24 19L24 18L23 18L23 17L22 17L22 16L23 16L23 15L24 15L24 16L25 16L25 15L27 15L27 16L26 16L26 17L27 17L27 16L28 16L28 15L27 15L27 14L29 14L29 13L31 13L31 12L32 12L32 11L31 11L31 10L30 10L30 11L31 11L31 12L29 12L29 13L27 13L27 14L26 14L26 13L24 13L24 12L25 12L25 11L24 11L24 10L23 10L23 9L22 9L22 8L21 8L21 9L20 9L20 8ZM19 9L19 10L20 10L20 9ZM22 10L22 11L21 11L21 12L22 12L22 13L23 13L23 14L22 14L22 15L18 15L18 16L17 16L17 17L16 17L16 18L20 18L20 16L22 16L22 15L23 15L23 14L24 14L24 13L23 13L23 12L24 12L24 11L23 11L23 10ZM0 15L0 16L1 16L1 15ZM9 16L9 17L10 17L10 16ZM0 17L0 18L1 18L1 19L2 19L2 18L1 18L1 17ZM30 18L30 19L31 19L31 18ZM26 19L26 20L27 20L27 19ZM1 20L1 21L0 21L0 25L1 25L1 22L2 22L2 20ZM17 20L17 21L16 21L16 22L15 22L15 23L14 23L14 24L16 24L16 23L18 23L18 22L17 22L17 21L19 21L19 22L20 22L20 23L21 23L21 24L20 24L20 25L19 25L19 24L17 24L17 25L16 25L16 26L17 26L17 27L18 27L18 26L20 26L20 25L21 25L21 24L22 24L22 25L23 25L23 24L22 24L22 23L21 23L21 22L20 22L20 21L21 21L21 20ZM30 20L30 21L31 21L31 20ZM2 23L2 25L3 25L3 23ZM30 24L30 25L29 25L29 27L31 27L31 26L30 26L30 25L31 25L31 24ZM25 25L25 28L28 28L28 25ZM26 26L26 27L27 27L27 26ZM14 27L14 28L15 28L15 27ZM29 28L29 30L31 30L31 29L32 29L32 28ZM26 29L26 30L27 30L27 29ZM9 30L9 32L10 32L10 30ZM24 32L24 33L25 33L25 32ZM0 0L0 7L7 7L7 0ZM1 1L1 6L6 6L6 1ZM2 2L2 5L5 5L5 2ZM26 0L26 7L33 7L33 0ZM27 1L27 6L32 6L32 1ZM28 2L28 5L31 5L31 2ZM0 26L0 33L7 33L7 26ZM1 27L1 32L6 32L6 27ZM2 28L2 31L5 31L5 28Z" fill="#000000"/></g></g></svg>
