<?xml version="1.0" encoding="UTF-8"?>
<svg xmlns="http://www.w3.org/2000/svg" version="1.1" width="125" height="125" viewBox="0 0 125 125"><rect x="0" y="0" width="125" height="125" fill="#fafaf5"/><g transform="scale(3.571)"><g transform="translate(1,1)"><path fill-rule="evenodd" d="M9 0L9 1L8 1L8 2L9 2L9 3L8 3L8 4L10 4L10 7L11 7L11 4L12 4L12 5L13 5L13 6L12 6L12 9L13 9L13 8L14 8L14 9L16 9L16 10L15 10L15 11L14 11L14 12L16 12L16 11L18 11L18 12L17 12L17 13L16 13L16 14L15 14L15 13L12 13L12 11L13 11L13 10L11 10L11 11L10 11L10 9L11 9L11 8L6 8L6 9L7 9L7 10L5 10L5 8L0 8L0 10L1 10L1 13L0 13L0 15L1 15L1 16L0 16L0 17L2 17L2 18L0 18L0 20L2 20L2 21L3 21L3 22L2 22L2 23L3 23L3 22L4 22L4 24L2 24L2 25L5 25L5 23L7 23L7 24L6 24L6 25L7 25L7 24L8 24L8 27L9 27L9 28L8 28L8 33L10 33L10 32L9 32L9 31L10 31L10 30L9 30L9 29L12 29L12 30L13 30L13 31L12 31L12 33L13 33L13 32L14 32L14 33L19 33L19 32L20 32L20 33L21 33L21 32L22 32L22 33L23 33L23 31L24 31L24 30L22 30L22 31L21 31L21 30L20 30L20 28L22 28L22 29L23 29L23 28L24 28L24 29L25 29L25 31L26 31L26 33L27 33L27 32L28 32L28 31L27 31L27 30L29 30L29 32L31 32L31 33L32 33L32 32L31 32L31 30L33 30L33 28L31 28L31 27L32 27L32 26L33 26L33 25L32 25L32 24L33 24L33 23L32 23L32 22L33 22L33 21L32 21L32 20L33 20L33 19L32 19L32 18L33 18L33 17L32 17L32 16L33 16L33 15L31 15L31 13L32 13L32 14L33 14L33 11L32 11L32 10L33 10L33 9L32 9L32 8L31 8L31 9L30 9L30 8L29 8L29 9L30 9L30 10L29 10L29 11L28 11L28 10L27 10L27 9L28 9L28 8L27 8L27 9L26 9L26 8L25 8L25 9L26 9L26 10L27 10L27 11L28 11L28 12L27 12L27 13L26 13L26 11L25 11L25 10L24 10L24 9L23 9L23 6L22 6L22 5L21 5L21 6L20 6L20 9L19 9L19 6L18 6L18 5L20 5L20 3L22 3L22 4L23 4L23 5L24 5L24 4L25 4L25 3L24 3L24 2L25 2L25 1L24 1L24 0L23 0L23 1L24 1L24 2L18 2L18 3L17 3L17 4L16 4L16 2L17 2L17 0L16 0L16 1L15 1L15 0L14 0L14 1L11 1L11 2L10 2L10 0ZM19 0L19 1L20 1L20 0ZM21 0L21 1L22 1L22 0ZM14 1L14 2L12 2L12 4L14 4L14 5L16 5L16 6L15 6L15 7L14 7L14 6L13 6L13 7L14 7L14 8L15 8L15 7L16 7L16 6L17 6L17 8L16 8L16 9L17 9L17 10L19 10L19 11L20 11L20 12L19 12L19 13L20 13L20 14L18 14L18 15L17 15L17 14L16 14L16 15L17 15L17 16L15 16L15 15L14 15L14 16L13 16L13 17L12 17L12 15L13 15L13 14L12 14L12 13L11 13L11 12L10 12L10 13L11 13L11 14L10 14L10 15L8 15L8 13L9 13L9 11L8 11L8 10L7 10L7 11L6 11L6 12L7 12L7 13L4 13L4 10L2 10L2 12L3 12L3 13L4 13L4 15L3 15L3 14L2 14L2 13L1 13L1 14L2 14L2 15L3 15L3 16L2 16L2 17L4 17L4 19L5 19L5 17L6 17L6 18L10 18L10 19L9 19L9 20L8 20L8 19L6 19L6 20L3 20L3 21L6 21L6 22L7 22L7 23L8 23L8 24L10 24L10 25L11 25L11 26L10 26L10 28L11 28L11 26L13 26L13 27L12 27L12 29L15 29L15 30L17 30L17 32L19 32L19 31L20 31L20 32L21 32L21 31L20 31L20 30L17 30L17 28L19 28L19 27L20 27L20 26L22 26L22 27L23 27L23 26L24 26L24 24L23 24L23 23L25 23L25 21L24 21L24 22L21 22L21 21L22 21L22 20L21 20L21 21L20 21L20 20L19 20L19 19L21 19L21 17L22 17L22 19L23 19L23 20L26 20L26 21L27 21L27 22L26 22L26 24L27 24L27 23L28 23L28 24L29 24L29 21L27 21L27 20L29 20L29 17L31 17L31 16L29 16L29 17L28 17L28 19L27 19L27 18L25 18L25 19L24 19L24 18L23 18L23 17L22 17L22 16L23 16L23 15L24 15L24 16L25 16L25 15L27 15L27 16L26 16L26 17L27 17L27 16L28 16L28 15L27 15L27 14L29 14L29 13L31 13L31 12L32 12L32 11L31 11L31 10L30 10L30 11L31 11L31 12L29 12L29 13L27 13L27 14L26 14L26 13L24 13L24 12L25 12L25 11L24 11L24 10L23 10L23 9L22 9L22 8L21 8L21 9L20 9L20 10L19 10L19 9L17 9L17 8L18 8L18 6L17 6L17 5L16 5L16 4L15 4L15 1ZM10 3L10 4L11 4L11 3ZM8 5L8 7L9 7L9 5ZM21 6L21 7L22 7L22 6ZM24 6L24 7L25 7L25 6ZM20 10L20 11L21 11L21 12L20 12L20 13L21 13L21 12L22 12L22 13L23 13L23 14L22 14L22 15L18 15L18 16L17 16L17 17L16 17L16 18L15 18L15 19L14 19L14 20L15 20L15 21L12 21L12 19L13 19L13 18L11 18L11 16L10 16L10 18L11 18L11 19L10 19L10 20L9 20L9 21L7 21L7 20L6 20L6 21L7 21L7 22L8 22L8 23L9 23L9 22L10 22L10 20L11 20L11 21L12 21L12 22L13 22L13 23L12 23L12 25L13 25L13 24L14 24L14 25L16 25L16 26L15 26L15 27L14 27L14 28L15 28L15 27L16 27L16 28L17 28L17 26L20 26L20 25L21 25L21 24L22 24L22 25L23 25L23 24L22 24L22 23L21 23L21 24L20 24L20 23L19 23L19 22L20 22L20 21L19 21L19 20L17 20L17 21L16 21L16 19L18 19L18 18L17 18L17 17L19 17L19 18L20 18L20 16L22 16L22 15L23 15L23 14L24 14L24 13L23 13L23 12L24 12L24 11L23 11L23 10L22 10L22 11L21 11L21 10ZM7 11L7 12L8 12L8 11ZM6 14L6 15L4 15L4 17L5 17L5 16L6 16L6 17L7 17L7 16L8 16L8 15L7 15L7 14ZM6 15L6 16L7 16L7 15ZM14 16L14 17L15 17L15 16ZM30 18L30 19L31 19L31 18ZM26 19L26 20L27 20L27 19ZM30 20L30 21L31 21L31 20ZM0 21L0 25L1 25L1 21ZM15 21L15 22L16 22L16 23L14 23L14 24L16 24L16 23L17 23L17 24L18 24L18 23L17 23L17 22L19 22L19 21L17 21L17 22L16 22L16 21ZM19 24L19 25L20 25L20 24ZM30 24L30 25L29 25L29 27L31 27L31 26L30 26L30 25L31 25L31 24ZM25 25L25 28L28 28L28 25ZM26 26L26 27L27 27L27 26ZM29 28L29 30L31 30L31 28ZM26 29L26 30L27 30L27 29ZM14 31L14 32L15 32L15 31ZM24 32L24 33L25 33L25 32ZM0 0L0 7L7 7L7 0ZM1 1L1 6L6 6L6 1ZM2 2L2 5L5 5L5 2ZM26 0L26 7L33 7L33 0ZM27 1L27 6L32 6L32 1ZM28 2L28 5L31 5L31 2ZM0 26L0 33L7 33L7 26ZM1 27L1 32L6 32L6 27ZM2 28L2 31L5 31L5 28Z" fill="#000000"/></g></g></svg>
