<?xml version="1.0" encoding="UTF-8"?>
<svg xmlns="http://www.w3.org/2000/svg" version="1.1" width="125" height="125" viewBox="0 0 125 125"><rect x="0" y="0" width="125" height="125" fill="#fafaf5"/><g transform="scale(3.571)"><g transform="translate(1,1)"><path fill-rule="evenodd" d="M9 0L9 1L10 1L10 2L8 2L8 3L9 3L9 4L10 4L10 5L9 5L9 6L8 6L8 8L4 8L4 9L3 9L3 8L0 8L0 9L1 9L1 10L0 10L0 12L1 12L1 10L2 10L2 9L3 9L3 11L2 11L2 13L0 13L0 17L1 17L1 14L2 14L2 15L3 15L3 16L5 16L5 17L7 17L7 18L6 18L6 19L5 19L5 18L4 18L4 17L3 17L3 19L2 19L2 20L1 20L1 19L0 19L0 20L1 20L1 21L2 21L2 20L3 20L3 19L5 19L5 21L7 21L7 22L6 22L6 23L7 23L7 24L6 24L6 25L7 25L7 24L8 24L8 29L9 29L9 28L10 28L10 29L11 29L11 30L10 30L10 31L9 31L9 30L8 30L8 33L10 33L10 31L12 31L12 32L11 32L11 33L12 33L12 32L14 32L14 33L15 33L15 32L16 32L16 33L18 33L18 30L19 30L19 29L22 29L22 28L23 28L23 27L24 27L24 29L23 29L23 31L22 31L22 30L21 30L21 33L22 33L22 32L24 32L24 33L25 33L25 32L27 32L27 33L29 33L29 32L28 32L28 31L31 31L31 33L33 33L33 32L32 32L32 31L33 31L33 29L32 29L32 31L31 31L31 29L29 29L29 26L30 26L30 24L28 24L28 23L32 23L32 24L31 24L31 25L32 25L32 26L31 26L31 27L33 27L33 13L32 13L32 12L33 12L33 9L32 9L32 10L31 10L31 14L29 14L29 15L28 15L28 16L29 16L29 15L31 15L31 14L32 14L32 16L31 16L31 17L32 17L32 18L31 18L31 19L32 19L32 20L31 20L31 21L32 21L32 22L27 22L27 18L28 18L28 19L30 19L30 18L28 18L28 17L27 17L27 12L25 12L25 10L26 10L26 11L27 11L27 8L25 8L25 5L24 5L24 4L23 4L23 3L24 3L24 0L22 0L22 1L23 1L23 3L22 3L22 4L21 4L21 2L20 2L20 1L21 1L21 0L16 0L16 1L14 1L14 0L12 0L12 1L10 1L10 0ZM13 1L13 2L14 2L14 1ZM17 1L17 3L16 3L16 2L15 2L15 3L16 3L16 4L15 4L15 5L14 5L14 4L13 4L13 3L12 3L12 2L11 2L11 3L12 3L12 4L11 4L11 5L10 5L10 6L9 6L9 7L10 7L10 6L11 6L11 8L12 8L12 10L10 10L10 8L9 8L9 10L10 10L10 11L8 11L8 12L7 12L7 11L6 11L6 10L8 10L8 9L4 9L4 10L5 10L5 11L4 11L4 12L3 12L3 13L2 13L2 14L3 14L3 15L4 15L4 14L5 14L5 15L6 15L6 16L8 16L8 17L9 17L9 18L10 18L10 19L8 19L8 18L7 18L7 19L6 19L6 20L10 20L10 19L12 19L12 20L11 20L11 21L9 21L9 22L11 22L11 21L12 21L12 20L13 20L13 21L14 21L14 22L13 22L13 23L14 23L14 22L15 22L15 23L16 23L16 24L17 24L17 23L18 23L18 21L17 21L17 22L16 22L16 20L15 20L15 19L16 19L16 16L17 16L17 14L16 14L16 13L17 13L17 11L18 11L18 9L16 9L16 10L14 10L14 8L12 8L12 6L13 6L13 7L14 7L14 6L15 6L15 8L16 8L16 6L17 6L17 7L18 7L18 6L17 6L17 5L19 5L19 4L20 4L20 2L19 2L19 3L18 3L18 1ZM13 5L13 6L14 6L14 5ZM20 5L20 6L19 6L19 7L20 7L20 6L21 6L21 7L22 7L22 6L23 6L23 7L24 7L24 6L23 6L23 5L22 5L22 6L21 6L21 5ZM19 8L19 11L21 11L21 10L22 10L22 11L23 11L23 12L22 12L22 13L21 13L21 12L19 12L19 14L18 14L18 15L19 15L19 16L20 16L20 14L22 14L22 18L21 18L21 17L17 17L17 19L19 19L19 25L17 25L17 26L18 26L18 27L19 27L19 28L18 28L18 29L19 29L19 28L20 28L20 27L22 27L22 26L23 26L23 25L24 25L24 24L27 24L27 23L25 23L25 22L26 22L26 21L25 21L25 22L24 22L24 21L23 21L23 20L22 20L22 21L23 21L23 23L22 23L22 25L21 25L21 23L20 23L20 22L21 22L21 20L20 20L20 18L21 18L21 19L22 19L22 18L23 18L23 19L24 19L24 18L25 18L25 19L26 19L26 17L23 17L23 16L24 16L24 15L25 15L25 16L26 16L26 14L24 14L24 9L25 9L25 8L22 8L22 9L21 9L21 8ZM30 8L30 9L29 9L29 10L28 10L28 12L29 12L29 11L30 11L30 9L31 9L31 8ZM13 10L13 11L14 11L14 10ZM16 10L16 11L17 11L17 10ZM5 11L5 14L6 14L6 15L7 15L7 14L8 14L8 13L7 13L7 12L6 12L6 11ZM11 11L11 12L12 12L12 13L11 13L11 14L9 14L9 16L11 16L11 18L12 18L12 16L14 16L14 18L13 18L13 19L14 19L14 18L15 18L15 16L16 16L16 15L15 15L15 14L14 14L14 13L13 13L13 12L12 12L12 11ZM3 13L3 14L4 14L4 13ZM6 13L6 14L7 14L7 13ZM13 14L13 15L14 15L14 14ZM11 15L11 16L12 16L12 15ZM29 20L29 21L30 21L30 20ZM3 21L3 22L4 22L4 21ZM0 22L0 23L1 23L1 24L0 24L0 25L1 25L1 24L2 24L2 25L5 25L5 23L4 23L4 24L3 24L3 23L1 23L1 22ZM7 22L7 23L8 23L8 24L9 24L9 27L10 27L10 28L11 28L11 29L12 29L12 28L13 28L13 29L14 29L14 30L13 30L13 31L14 31L14 30L15 30L15 31L16 31L16 32L17 32L17 30L16 30L16 29L15 29L15 27L16 27L16 25L15 25L15 26L14 26L14 24L12 24L12 23L11 23L11 24L10 24L10 23L8 23L8 22ZM11 24L11 26L12 26L12 24ZM25 25L25 28L28 28L28 25ZM13 26L13 27L14 27L14 26ZM26 26L26 27L27 27L27 26ZM11 27L11 28L12 28L12 27ZM25 29L25 30L24 30L24 31L25 31L25 30L26 30L26 31L27 31L27 29ZM0 0L0 7L7 7L7 0ZM1 1L1 6L6 6L6 1ZM2 2L2 5L5 5L5 2ZM26 0L26 7L33 7L33 0ZM27 1L27 6L32 6L32 1ZM28 2L28 5L31 5L31 2ZM0 26L0 33L7 33L7 26ZM1 27L1 32L6 32L6 27ZM2 28L2 31L5 31L5 28Z" fill="#000000"/></g></g></svg>
