<?xml version="1.0" encoding="UTF-8"?>
<svg xmlns="http://www.w3.org/2000/svg" version="1.1" width="125" height="125" viewBox="0 0 125 125"><rect x="0" y="0" width="125" height="125" fill="#fafaf5"/><g transform="scale(4.032)"><g transform="translate(1,1)"><path fill-rule="evenodd" d="M9 0L9 1L8 1L8 2L9 2L9 3L8 3L8 4L9 4L9 5L8 5L8 7L9 7L9 8L6 8L6 9L5 9L5 8L0 8L0 10L1 10L1 9L2 9L2 11L3 11L3 10L4 10L4 9L5 9L5 10L6 10L6 11L7 11L7 12L6 12L6 13L9 13L9 15L7 15L7 14L3 14L3 12L2 12L2 13L1 13L1 14L0 14L0 15L1 15L1 14L3 14L3 16L2 16L2 17L0 17L0 21L1 21L1 18L3 18L3 19L2 19L2 20L3 20L3 21L7 21L7 20L3 20L3 19L5 19L5 18L4 18L4 17L7 17L7 18L6 18L6 19L8 19L8 23L10 23L10 26L9 26L9 24L8 24L8 29L9 29L9 28L11 28L11 27L10 27L10 26L15 26L15 27L16 27L16 28L17 28L17 29L18 29L18 28L17 28L17 26L18 26L18 27L19 27L19 26L21 26L21 27L20 27L20 28L19 28L19 29L20 29L20 28L22 28L22 27L25 27L25 28L24 28L24 29L27 29L27 28L28 28L28 26L29 26L29 25L28 25L28 26L27 26L27 28L26 28L26 25L27 25L27 24L26 24L26 23L27 23L27 22L26 22L26 21L27 21L27 20L26 20L26 17L27 17L27 16L26 16L26 15L27 15L27 14L25 14L25 13L27 13L27 12L26 12L26 11L28 11L28 12L29 12L29 11L28 11L28 10L29 10L29 9L28 9L28 8L27 8L27 9L26 9L26 8L25 8L25 9L24 9L24 8L23 8L23 9L22 9L22 8L21 8L21 6L20 6L20 7L19 7L19 6L18 6L18 5L21 5L21 4L19 4L19 3L20 3L20 2L21 2L21 0L17 0L17 1L14 1L14 0L13 0L13 2L12 2L12 3L10 3L10 2L11 2L11 1L12 1L12 0L11 0L11 1L10 1L10 0ZM17 1L17 2L15 2L15 3L14 3L14 2L13 2L13 3L14 3L14 4L12 4L12 5L11 5L11 4L10 4L10 3L9 3L9 4L10 4L10 6L9 6L9 7L10 7L10 6L11 6L11 8L14 8L14 9L12 9L12 10L9 10L9 9L10 9L10 8L9 8L9 9L8 9L8 10L7 10L7 9L6 9L6 10L7 10L7 11L8 11L8 12L9 12L9 11L10 11L10 14L11 14L11 15L12 15L12 16L11 16L11 17L10 17L10 20L9 20L9 22L10 22L10 21L11 21L11 19L12 19L12 20L14 20L14 21L15 21L15 22L11 22L11 25L13 25L13 24L14 24L14 25L15 25L15 26L16 26L16 25L17 25L17 24L18 24L18 25L20 25L20 24L19 24L19 23L17 23L17 22L18 22L18 21L20 21L20 20L21 20L21 19L22 19L22 20L25 20L25 21L26 21L26 20L25 20L25 19L22 19L22 18L18 18L18 19L16 19L16 21L15 21L15 19L14 19L14 17L15 17L15 18L16 18L16 17L15 17L15 16L18 16L18 17L20 17L20 14L19 14L19 12L18 12L18 11L20 11L20 12L21 12L21 11L22 11L22 13L25 13L25 12L24 12L24 11L23 11L23 10L21 10L21 8L20 8L20 10L18 10L18 9L19 9L19 7L18 7L18 6L17 6L17 8L16 8L16 6L15 6L15 8L14 8L14 6L13 6L13 7L12 7L12 5L14 5L14 4L15 4L15 5L16 5L16 4L15 4L15 3L18 3L18 2L20 2L20 1ZM17 8L17 9L16 9L16 10L15 10L15 9L14 9L14 10L13 10L13 11L12 11L12 13L11 13L11 14L12 14L12 15L13 15L13 14L12 14L12 13L14 13L14 14L15 14L15 15L14 15L14 16L13 16L13 17L14 17L14 16L15 16L15 15L16 15L16 14L17 14L17 13L18 13L18 12L17 12L17 13L16 13L16 14L15 14L15 13L14 13L14 12L13 12L13 11L14 11L14 10L15 10L15 12L16 12L16 11L18 11L18 10L17 10L17 9L18 9L18 8ZM25 10L25 11L26 11L26 10ZM0 11L0 12L1 12L1 11ZM4 11L4 12L5 12L5 11ZM28 13L28 14L29 14L29 13ZM21 14L21 15L22 15L22 14ZM23 14L23 15L24 15L24 14ZM6 15L6 16L7 16L7 17L8 17L8 18L9 18L9 17L8 17L8 16L7 16L7 15ZM28 15L28 16L29 16L29 15ZM21 16L21 17L26 17L26 16ZM11 17L11 18L12 18L12 17ZM28 17L28 18L29 18L29 17ZM18 19L18 20L17 20L17 21L16 21L16 22L15 22L15 23L16 23L16 24L17 24L17 23L16 23L16 22L17 22L17 21L18 21L18 20L20 20L20 19ZM28 19L28 20L29 20L29 19ZM21 21L21 24L24 24L24 21ZM28 21L28 22L29 22L29 21ZM22 22L22 23L23 23L23 22ZM12 23L12 24L13 24L13 23ZM21 25L21 26L25 26L25 25ZM13 28L13 29L14 29L14 28ZM0 0L0 7L7 7L7 0ZM1 1L1 6L6 6L6 1ZM2 2L2 5L5 5L5 2ZM22 0L22 7L29 7L29 0ZM23 1L23 6L28 6L28 1ZM24 2L24 5L27 5L27 2ZM0 22L0 29L7 29L7 22ZM1 23L1 28L6 28L6 23ZM2 24L2 27L5 27L5 24Z" fill="#000000"/></g></g></svg>
