<?xml version="1.0" encoding="UTF-8"?>
<svg xmlns="http://www.w3.org/2000/svg" version="1.1" width="125" height="125" viewBox="0 0 125 125"><rect x="0" y="0" width="125" height="125" fill="#fafaf5"/><g transform="scale(3.571)"><g transform="translate(1,1)"><path fill-rule="evenodd" d="M8 0L8 1L10 1L10 0ZM15 0L15 1L14 1L14 2L11 2L11 4L10 4L10 3L9 3L9 2L8 2L8 5L9 5L9 6L8 6L8 7L9 7L9 8L8 8L8 10L6 10L6 9L7 9L7 8L6 8L6 9L5 9L5 11L4 11L4 8L0 8L0 9L1 9L1 10L0 10L0 12L3 12L3 13L2 13L2 14L1 14L1 13L0 13L0 16L1 16L1 17L0 17L0 18L1 18L1 19L0 19L0 20L1 20L1 21L0 21L0 22L1 22L1 21L2 21L2 20L3 20L3 21L4 21L4 19L5 19L5 23L4 23L4 24L3 24L3 25L4 25L4 24L6 24L6 25L8 25L8 26L9 26L9 29L8 29L8 33L10 33L10 32L12 32L12 31L11 31L11 28L12 28L12 29L13 29L13 28L12 28L12 26L13 26L13 27L14 27L14 30L13 30L13 33L22 33L22 32L25 32L25 33L29 33L29 32L25 32L25 31L27 31L27 30L25 30L25 29L30 29L30 30L29 30L29 31L31 31L31 26L32 26L32 24L33 24L33 21L31 21L31 20L32 20L32 18L33 18L33 15L32 15L32 14L31 14L31 15L30 15L30 14L29 14L29 15L28 15L28 18L27 18L27 15L26 15L26 14L25 14L25 13L26 13L26 12L25 12L25 11L24 11L24 9L26 9L26 11L27 11L27 14L28 14L28 13L29 13L29 12L30 12L30 11L31 11L31 13L33 13L33 8L32 8L32 9L31 9L31 8L28 8L28 9L30 9L30 11L29 11L29 12L28 12L28 11L27 11L27 9L26 9L26 8L25 8L25 2L24 2L24 0L23 0L23 3L22 3L22 4L20 4L20 3L21 3L21 2L22 2L22 0L21 0L21 1L20 1L20 0L19 0L19 1L17 1L17 0ZM16 1L16 3L12 3L12 5L10 5L10 6L9 6L9 7L10 7L10 8L9 8L9 9L10 9L10 10L9 10L9 12L10 12L10 13L8 13L8 14L7 14L7 13L4 13L4 14L7 14L7 15L3 15L3 17L1 17L1 18L2 18L2 19L3 19L3 17L4 17L4 18L5 18L5 19L6 19L6 20L7 20L7 21L6 21L6 22L7 22L7 23L6 23L6 24L7 24L7 23L9 23L9 25L10 25L10 26L11 26L11 25L12 25L12 24L13 24L13 26L14 26L14 27L16 27L16 31L15 31L15 32L16 32L16 31L18 31L18 30L19 30L19 31L20 31L20 30L21 30L21 32L22 32L22 30L21 30L21 29L18 29L18 27L17 27L17 26L14 26L14 24L16 24L16 25L17 25L17 24L18 24L18 25L19 25L19 24L18 24L18 22L16 22L16 20L17 20L17 19L18 19L18 21L20 21L20 22L19 22L19 23L20 23L20 24L21 24L21 25L22 25L22 26L21 26L21 27L22 27L22 26L23 26L23 25L24 25L24 24L28 24L28 23L30 23L30 26L29 26L29 27L30 27L30 26L31 26L31 24L32 24L32 23L31 23L31 22L29 22L29 20L31 20L31 18L32 18L32 17L30 17L30 19L29 19L29 18L28 18L28 20L27 20L27 18L26 18L26 17L25 17L25 15L24 15L24 12L23 12L23 11L20 11L20 10L23 10L23 9L24 9L24 8L22 8L22 5L23 5L23 7L24 7L24 4L22 4L22 5L21 5L21 7L20 7L20 6L19 6L19 5L18 5L18 4L16 4L16 3L18 3L18 2L17 2L17 1ZM19 1L19 3L20 3L20 1ZM13 4L13 5L12 5L12 7L11 7L11 6L10 6L10 7L11 7L11 8L12 8L12 7L13 7L13 9L15 9L15 10L14 10L14 11L11 11L11 13L10 13L10 14L9 14L9 15L10 15L10 16L11 16L11 17L10 17L10 18L8 18L8 17L9 17L9 16L8 16L8 15L7 15L7 16L5 16L5 17L7 17L7 18L6 18L6 19L7 19L7 18L8 18L8 19L9 19L9 21L7 21L7 22L10 22L10 23L14 23L14 22L15 22L15 21L14 21L14 20L13 20L13 18L14 18L14 17L12 17L12 16L14 16L14 15L15 15L15 14L14 14L14 13L13 13L13 14L12 14L12 12L16 12L16 10L17 10L17 9L18 9L18 8L19 8L19 10L20 10L20 9L22 9L22 8L20 8L20 7L19 7L19 6L18 6L18 7L17 7L17 6L16 6L16 7L17 7L17 8L16 8L16 9L15 9L15 5L14 5L14 4ZM13 5L13 7L14 7L14 5ZM2 9L2 10L1 10L1 11L2 11L2 10L3 10L3 9ZM5 11L5 12L8 12L8 11ZM19 11L19 12L17 12L17 13L19 13L19 14L18 14L18 15L20 15L20 14L21 14L21 17L22 17L22 18L21 18L21 19L22 19L22 20L21 20L21 22L20 22L20 23L22 23L22 25L23 25L23 24L24 24L24 23L28 23L28 22L27 22L27 21L25 21L25 22L24 22L24 20L25 20L25 18L24 18L24 17L23 17L23 16L24 16L24 15L23 15L23 16L22 16L22 13L23 13L23 12L22 12L22 13L21 13L21 12L20 12L20 11ZM10 14L10 15L11 15L11 16L12 16L12 14ZM13 14L13 15L14 15L14 14ZM16 14L16 15L17 15L17 14ZM16 16L16 17L15 17L15 19L17 19L17 18L16 18L16 17L17 17L17 16ZM11 17L11 18L12 18L12 17ZM18 17L18 18L19 18L19 17ZM22 18L22 19L24 19L24 18ZM11 19L11 20L10 20L10 22L12 22L12 21L11 21L11 20L12 20L12 19ZM19 19L19 20L20 20L20 19ZM22 20L22 21L23 21L23 20ZM2 22L2 23L1 23L1 24L0 24L0 25L1 25L1 24L2 24L2 23L3 23L3 22ZM22 22L22 23L23 23L23 22ZM25 25L25 28L28 28L28 25ZM26 26L26 27L27 27L27 26ZM23 29L23 30L24 30L24 31L25 31L25 30L24 30L24 29ZM32 29L32 30L33 30L33 29ZM9 30L9 32L10 32L10 30ZM32 31L32 32L33 32L33 31ZM30 32L30 33L31 33L31 32ZM0 0L0 7L7 7L7 0ZM1 1L1 6L6 6L6 1ZM2 2L2 5L5 5L5 2ZM26 0L26 7L33 7L33 0ZM27 1L27 6L32 6L32 1ZM28 2L28 5L31 5L31 2ZM0 26L0 33L7 33L7 26ZM1 27L1 32L6 32L6 27ZM2 28L2 31L5 31L5 28Z" fill="#000000"/></g></g></svg>
