<?xml version="1.0" encoding="UTF-8"?>
<svg xmlns="http://www.w3.org/2000/svg" version="1.1" width="125" height="125" viewBox="0 0 125 125"><rect x="0" y="0" width="125" height="125" fill="#fafaf5"/><g transform="scale(3.571)"><g transform="translate(1,1)"><path fill-rule="evenodd" d="M10 0L10 1L9 1L9 2L8 2L8 3L9 3L9 5L10 5L10 7L11 7L11 8L12 8L12 9L11 9L11 10L10 10L10 9L9 9L9 6L8 6L8 8L4 8L4 9L5 9L5 11L4 11L4 10L3 10L3 12L4 12L4 15L3 15L3 14L1 14L1 13L0 13L0 15L3 15L3 17L4 17L4 18L3 18L3 19L2 19L2 16L0 16L0 17L1 17L1 19L2 19L2 20L0 20L0 21L1 21L1 22L0 22L0 23L1 23L1 24L0 24L0 25L1 25L1 24L2 24L2 25L3 25L3 24L4 24L4 25L7 25L7 24L8 24L8 20L10 20L10 19L7 19L7 18L8 18L8 17L9 17L9 18L10 18L10 15L11 15L11 16L12 16L12 17L11 17L11 19L12 19L12 20L11 20L11 22L10 22L10 23L11 23L11 24L9 24L9 25L8 25L8 29L11 29L11 30L8 30L8 33L11 33L11 32L12 32L12 33L13 33L13 32L12 32L12 31L11 31L11 30L12 30L12 28L14 28L14 30L13 30L13 31L14 31L14 30L15 30L15 29L16 29L16 31L15 31L15 33L18 33L18 32L19 32L19 30L18 30L18 26L19 26L19 25L20 25L20 23L21 23L21 25L22 25L22 23L23 23L23 21L24 21L24 22L25 22L25 23L27 23L27 24L24 24L24 25L23 25L23 26L22 26L22 27L20 27L20 28L19 28L19 29L22 29L22 28L23 28L23 27L24 27L24 29L23 29L23 31L22 31L22 30L21 30L21 33L22 33L22 32L24 32L24 33L25 33L25 32L27 32L27 33L29 33L29 32L28 32L28 31L31 31L31 33L33 33L33 32L32 32L32 31L33 31L33 29L32 29L32 31L31 31L31 29L29 29L29 26L30 26L30 24L28 24L28 23L32 23L32 24L31 24L31 25L32 25L32 26L31 26L31 28L32 28L32 27L33 27L33 13L32 13L32 12L33 12L33 9L32 9L32 10L31 10L31 14L29 14L29 15L28 15L28 16L29 16L29 15L31 15L31 14L32 14L32 16L31 16L31 17L32 17L32 18L31 18L31 19L32 19L32 20L31 20L31 21L32 21L32 22L27 22L27 18L28 18L28 19L30 19L30 18L28 18L28 17L27 17L27 12L25 12L25 10L26 10L26 11L27 11L27 8L25 8L25 5L24 5L24 4L23 4L23 3L24 3L24 0L22 0L22 1L23 1L23 3L22 3L22 4L19 4L19 6L18 6L18 4L17 4L17 3L16 3L16 2L15 2L15 3L16 3L16 5L14 5L14 3L12 3L12 2L11 2L11 3L12 3L12 5L10 5L10 3L9 3L9 2L10 2L10 1L11 1L11 0ZM14 0L14 1L13 1L13 2L14 2L14 1L15 1L15 0ZM19 0L19 3L20 3L20 1L21 1L21 0ZM17 1L17 2L18 2L18 1ZM13 5L13 7L12 7L12 6L11 6L11 7L12 7L12 8L13 8L13 9L14 9L14 10L13 10L13 11L14 11L14 10L15 10L15 9L16 9L16 8L17 8L17 7L18 7L18 6L17 6L17 7L16 7L16 6L15 6L15 7L14 7L14 5ZM22 5L22 6L21 6L21 7L20 7L20 6L19 6L19 7L20 7L20 9L19 9L19 11L18 11L18 9L17 9L17 11L18 11L18 12L19 12L19 11L20 11L20 13L16 13L16 14L14 14L14 12L12 12L12 11L11 11L11 12L12 12L12 14L11 14L11 15L12 15L12 16L13 16L13 17L14 17L14 18L13 18L13 19L14 19L14 18L15 18L15 19L16 19L16 20L15 20L15 22L14 22L14 20L12 20L12 22L11 22L11 23L12 23L12 24L11 24L11 25L9 25L9 27L10 27L10 28L12 28L12 27L10 27L10 26L11 26L11 25L12 25L12 24L13 24L13 25L14 25L14 26L13 26L13 27L14 27L14 26L15 26L15 27L16 27L16 28L17 28L17 26L16 26L16 24L15 24L15 23L16 23L16 20L17 20L17 18L16 18L16 17L17 17L17 15L20 15L20 14L22 14L22 18L21 18L21 16L19 16L19 20L20 20L20 18L21 18L21 19L22 19L22 18L23 18L23 19L24 19L24 18L25 18L25 19L26 19L26 17L23 17L23 16L24 16L24 15L25 15L25 16L26 16L26 14L24 14L24 9L25 9L25 8L22 8L22 9L21 9L21 7L22 7L22 6L23 6L23 7L24 7L24 6L23 6L23 5ZM15 7L15 8L16 8L16 7ZM0 8L0 12L2 12L2 11L1 11L1 10L2 10L2 9L3 9L3 8ZM30 8L30 9L29 9L29 10L28 10L28 12L29 12L29 11L30 11L30 9L31 9L31 8ZM6 9L6 10L7 10L7 9ZM8 9L8 10L9 10L9 11L10 11L10 10L9 10L9 9ZM20 10L20 11L21 11L21 13L22 13L22 12L23 12L23 11L22 11L22 10ZM5 11L5 15L4 15L4 16L5 16L5 15L6 15L6 16L8 16L8 15L10 15L10 12L9 12L9 13L8 13L8 11ZM15 11L15 12L16 12L16 11ZM6 12L6 13L7 13L7 14L6 14L6 15L7 15L7 14L8 14L8 13L7 13L7 12ZM13 14L13 15L14 15L14 14ZM16 14L16 15L17 15L17 14ZM5 17L5 19L4 19L4 20L3 20L3 21L2 21L2 22L1 22L1 23L2 23L2 24L3 24L3 23L4 23L4 24L5 24L5 23L4 23L4 22L5 22L5 21L6 21L6 22L7 22L7 21L6 21L6 20L7 20L7 19L6 19L6 18L7 18L7 17ZM4 20L4 21L5 21L5 20ZM22 20L22 21L23 21L23 20ZM29 20L29 21L30 21L30 20ZM17 21L17 22L18 22L18 23L20 23L20 22L21 22L21 21ZM25 21L25 22L26 22L26 21ZM2 22L2 23L3 23L3 22ZM13 22L13 23L14 23L14 22ZM6 23L6 24L7 24L7 23ZM18 24L18 25L19 25L19 24ZM25 25L25 28L28 28L28 25ZM26 26L26 27L27 27L27 26ZM25 29L25 30L24 30L24 31L25 31L25 30L26 30L26 31L27 31L27 29ZM17 30L17 31L18 31L18 30ZM10 31L10 32L11 32L11 31ZM0 0L0 7L7 7L7 0ZM1 1L1 6L6 6L6 1ZM2 2L2 5L5 5L5 2ZM26 0L26 7L33 7L33 0ZM27 1L27 6L32 6L32 1ZM28 2L28 5L31 5L31 2ZM0 26L0 33L7 33L7 26ZM1 27L1 32L6 32L6 27ZM2 28L2 31L5 31L5 28Z" fill="#000000"/></g></g></svg>
