<?xml version="1.0" encoding="UTF-8"?>
<svg xmlns="http://www.w3.org/2000/svg" version="1.1" width="125" height="125" viewBox="0 0 125 125"><rect x="0" y="0" width="125" height="125" fill="#fafaf5"/><g transform="scale(3.571)"><g transform="translate(1,1)"><path fill-rule="evenodd" d="M10 0L10 1L9 1L9 2L8 2L8 3L9 3L9 5L10 5L10 7L11 7L11 8L12 8L12 9L11 9L11 10L10 10L10 9L9 9L9 6L8 6L8 8L4 8L4 9L3 9L3 8L0 8L0 10L2 10L2 9L3 9L3 10L5 10L5 12L6 12L6 13L5 13L5 14L4 14L4 15L3 15L3 13L4 13L4 12L3 12L3 13L1 13L1 14L2 14L2 16L3 16L3 17L2 17L2 18L1 18L1 15L0 15L0 19L1 19L1 20L2 20L2 21L3 21L3 22L2 22L2 23L1 23L1 22L0 22L0 23L1 23L1 24L0 24L0 25L1 25L1 24L3 24L3 25L5 25L5 24L3 24L3 23L5 23L5 21L7 21L7 22L6 22L6 23L8 23L8 24L9 24L9 25L8 25L8 29L9 29L9 30L8 30L8 33L10 33L10 31L9 31L9 30L12 30L12 28L14 28L14 30L13 30L13 31L14 31L14 30L15 30L15 29L16 29L16 31L15 31L15 33L18 33L18 32L19 32L19 30L18 30L18 26L19 26L19 25L20 25L20 23L18 23L18 22L17 22L17 21L21 21L21 25L22 25L22 23L23 23L23 21L24 21L24 22L25 22L25 23L27 23L27 24L24 24L24 25L23 25L23 26L22 26L22 27L20 27L20 28L19 28L19 29L22 29L22 28L23 28L23 27L24 27L24 29L23 29L23 31L22 31L22 30L21 30L21 33L22 33L22 32L24 32L24 33L25 33L25 32L27 32L27 33L29 33L29 32L28 32L28 31L31 31L31 33L33 33L33 32L32 32L32 31L33 31L33 29L32 29L32 31L31 31L31 29L29 29L29 26L30 26L30 24L28 24L28 23L32 23L32 24L31 24L31 25L32 25L32 26L31 26L31 28L32 28L32 27L33 27L33 13L32 13L32 12L33 12L33 9L32 9L32 10L31 10L31 14L29 14L29 15L28 15L28 16L29 16L29 15L31 15L31 14L32 14L32 16L31 16L31 17L32 17L32 18L31 18L31 19L32 19L32 20L31 20L31 21L32 21L32 22L27 22L27 18L28 18L28 19L30 19L30 18L28 18L28 17L27 17L27 12L25 12L25 10L26 10L26 11L27 11L27 8L25 8L25 5L24 5L24 4L23 4L23 3L24 3L24 0L22 0L22 1L23 1L23 3L22 3L22 4L19 4L19 6L18 6L18 7L17 7L17 3L16 3L16 2L15 2L15 3L16 3L16 5L14 5L14 3L12 3L12 2L11 2L11 3L12 3L12 5L10 5L10 3L9 3L9 2L10 2L10 1L11 1L11 0ZM14 0L14 1L13 1L13 2L14 2L14 1L15 1L15 0ZM17 0L17 2L18 2L18 0ZM19 0L19 3L20 3L20 1L21 1L21 0ZM13 5L13 7L12 7L12 6L11 6L11 7L12 7L12 8L13 8L13 9L14 9L14 10L13 10L13 11L14 11L14 10L15 10L15 9L16 9L16 8L17 8L17 7L16 7L16 6L15 6L15 7L14 7L14 5ZM20 5L20 6L19 6L19 7L20 7L20 8L19 8L19 11L20 11L20 13L16 13L16 14L14 14L14 12L12 12L12 11L11 11L11 12L12 12L12 14L11 14L11 15L9 15L9 14L10 14L10 12L9 12L9 11L10 11L10 10L9 10L9 11L8 11L8 9L6 9L6 10L7 10L7 11L6 11L6 12L7 12L7 11L8 11L8 14L7 14L7 13L6 13L6 14L5 14L5 15L4 15L4 19L3 19L3 18L2 18L2 20L4 20L4 21L5 21L5 20L4 20L4 19L5 19L5 18L7 18L7 19L6 19L6 20L9 20L9 22L8 22L8 23L12 23L12 24L10 24L10 25L9 25L9 29L10 29L10 28L12 28L12 27L10 27L10 25L12 25L12 24L13 24L13 25L14 25L14 26L13 26L13 27L14 27L14 26L15 26L15 27L16 27L16 28L17 28L17 26L16 26L16 24L15 24L15 23L16 23L16 20L17 20L17 18L16 18L16 17L17 17L17 15L20 15L20 16L19 16L19 18L18 18L18 20L20 20L20 18L21 18L21 19L22 19L22 18L23 18L23 19L24 19L24 18L25 18L25 19L26 19L26 17L23 17L23 16L24 16L24 15L25 15L25 16L26 16L26 14L24 14L24 9L25 9L25 8L22 8L22 9L21 9L21 7L22 7L22 6L23 6L23 7L24 7L24 6L23 6L23 5L22 5L22 6L21 6L21 5ZM20 6L20 7L21 7L21 6ZM15 7L15 8L16 8L16 7ZM30 8L30 9L29 9L29 10L28 10L28 12L29 12L29 11L30 11L30 9L31 9L31 8ZM17 10L17 11L18 11L18 10ZM21 10L21 13L22 13L22 12L23 12L23 11L22 11L22 10ZM0 11L0 12L1 12L1 11ZM15 11L15 12L16 12L16 11ZM6 14L6 15L5 15L5 16L6 16L6 17L8 17L8 19L10 19L10 20L11 20L11 21L10 21L10 22L12 22L12 20L14 20L14 22L13 22L13 23L14 23L14 22L15 22L15 20L16 20L16 19L15 19L15 18L14 18L14 17L13 17L13 16L12 16L12 15L11 15L11 16L10 16L10 17L11 17L11 18L9 18L9 17L8 17L8 16L9 16L9 15L8 15L8 16L6 16L6 15L7 15L7 14ZM13 14L13 15L14 15L14 14ZM16 14L16 15L17 15L17 14ZM21 14L21 18L22 18L22 14ZM11 16L11 17L12 17L12 16ZM13 18L13 19L14 19L14 18ZM11 19L11 20L12 20L12 19ZM22 20L22 21L23 21L23 20ZM29 20L29 21L30 21L30 20ZM25 21L25 22L26 22L26 21ZM6 24L6 25L7 25L7 24ZM18 24L18 25L19 25L19 24ZM25 25L25 28L28 28L28 25ZM26 26L26 27L27 27L27 26ZM25 29L25 30L24 30L24 31L25 31L25 30L26 30L26 31L27 31L27 29ZM17 30L17 31L18 31L18 30ZM11 31L11 32L12 32L12 33L13 33L13 32L12 32L12 31ZM0 0L0 7L7 7L7 0ZM1 1L1 6L6 6L6 1ZM2 2L2 5L5 5L5 2ZM26 0L26 7L33 7L33 0ZM27 1L27 6L32 6L32 1ZM28 2L28 5L31 5L31 2ZM0 26L0 33L7 33L7 26ZM1 27L1 32L6 32L6 27ZM2 28L2 31L5 31L5 28Z" fill="#000000"/></g></g></svg>
